<?xml version="1.0" encoding="UTF-8"?><svg id="Lotes_Interactivos" xmlns="http://www.w3.org/2000/svg" viewBox="0 0 1984.25 2138.83"><polygon id="LOTE-1" points="925.94 1787.49 953.32 1747.96 926.25 1731.02 898.53 1771.13 925.94 1787.49" fill="none" stroke="#e6007e" stroke-miterlimit="10"/><polygon id="LOTE-2" points="895.69 1769.47 923.07 1729.94 896 1713 868.28 1753.11 895.69 1769.47" fill="none" stroke="#e6007e" stroke-miterlimit="10"/><polygon id="LOTE-3" points="864.43 1750.36 891.81 1710.83 864.75 1693.89 837.02 1734 864.43 1750.36" fill="none" stroke="#e6007e" stroke-miterlimit="10"/><polygon id="LOTE-4" points="833.48 1732.03 860.86 1692.5 833.79 1675.56 806.07 1715.67 833.48 1732.03" fill="none" stroke="#e6007e" stroke-miterlimit="10"/><polygon id="LOTE-5" points="802.38 1712.68 829.76 1673.16 802.69 1656.21 774.97 1696.33 802.38 1712.68" fill="none" stroke="#e6007e" stroke-miterlimit="10"/><polygon id="LOTE-6" points="772.13 1694.67 799.51 1655.14 772.45 1638.2 744.73 1678.31 772.13 1694.67" fill="none" stroke="#e6007e" stroke-miterlimit="10"/><polygon id="LOTE-7" points="740.87 1675.55 768.25 1636.03 741.19 1619.08 713.47 1659.19 740.87 1675.55" fill="none" stroke="#e6007e" stroke-miterlimit="10"/><polygon id="LOTE-8" points="709.92 1657.23 737.3 1617.7 710.23 1600.76 682.51 1640.87 709.92 1657.23" fill="none" stroke="#e6007e" stroke-miterlimit="10"/><polygon id="LOTE-9" points="677.99 1638.5 705.37 1598.97 678.31 1582.03 650.58 1622.14 677.99 1638.5" fill="none" stroke="#e6007e" stroke-miterlimit="10"/><polygon id="LOTE-10" points="647.74 1620.49 675.12 1580.96 648.06 1564.02 620.34 1604.13 647.74 1620.49" fill="none" stroke="#e6007e" stroke-miterlimit="10"/><polygon id="LOTE-11" points="615.04 1601.37 642.41 1561.84 615.35 1544.9 587.63 1585.01 615.04 1601.37" fill="none" stroke="#e6007e" stroke-miterlimit="10"/><polygon id="LOTE-12" points="584.08 1583.05 611.46 1543.52 584.4 1526.58 556.67 1566.69 584.08 1583.05" fill="none" stroke="#e6007e" stroke-miterlimit="10"/><polygon id="LOTE-13" points="552.98 1563.7 580.36 1524.17 553.3 1507.23 525.58 1547.34 552.98 1563.7" fill="none" stroke="#e6007e" stroke-miterlimit="10"/><polygon id="LOTE-14" points="522.74 1545.68 550.12 1506.16 523.05 1489.22 495.33 1529.33 522.74 1545.68" fill="none" stroke="#e6007e" stroke-miterlimit="10"/><polygon id="LOTE-15" points="491.48 1526.57 518.86 1487.04 491.79 1470.1 464.07 1510.21 491.48 1526.57" fill="none" stroke="#e6007e" stroke-miterlimit="10"/><polygon id="LOTE-16" points="474.99 1358.32 523.93 1368.58 531.3 1338.79 481.66 1328.43 474.99 1358.32" fill="none" stroke="#e6007e" stroke-miterlimit="10"/><polygon id="LOTE-17" points="482.31 1325.35 531.25 1335.61 538.62 1305.82 488.98 1295.46 482.31 1325.35" fill="none" stroke="#e6007e" stroke-miterlimit="10"/><polygon id="LOTE-18" points="490.37 1291.1 539.31 1301.36 546.68 1271.57 497.04 1261.21 490.37 1291.1" fill="none" stroke="#e6007e" stroke-miterlimit="10"/><polygon id="LOTE-19" points="498.49 1256.68 547.43 1266.95 554.8 1237.15 505.15 1226.8 498.49 1256.68" fill="none" stroke="#e6007e" stroke-miterlimit="10"/><polygon id="LOTE-20" points="506.1 1222.41 555.04 1232.67 562.41 1202.88 512.76 1192.52 506.1 1222.41" fill="none" stroke="#e6007e" stroke-miterlimit="10"/><polygon id="LOTE-21" points="513.77 1187.33 562.71 1197.59 570.08 1167.8 520.44 1157.44 513.77 1187.33" fill="none" stroke="#e6007e" stroke-miterlimit="10"/><polygon id="LOTE-22" points="521.48 1153.46 570.42 1163.72 577.79 1133.93 528.14 1123.57 521.48 1153.46" fill="none" stroke="#e6007e" stroke-miterlimit="10"/><polygon id="LOTE-23" points="529.22 1119.15 578.16 1129.41 585.53 1099.62 535.89 1089.26 529.22 1119.15" fill="none" stroke="#e6007e" stroke-miterlimit="10"/><polygon id="LOTE-24" points="536.47 1085.02 585.41 1095.28 592.78 1065.49 543.14 1055.13 536.47 1085.02" fill="none" stroke="#e6007e" stroke-miterlimit="10"/><polygon id="LOTE-25" points="567.68 1025.6 609.36 1051.81 627.68 1026.54 585.38 1000 567.68 1025.6" fill="none" stroke="#e6007e" stroke-miterlimit="10"/><polygon id="LOTE-26" points="588.4 996.49 630.09 1022.7 648.4 997.43 606.1 970.89 588.4 996.49" fill="none" stroke="#e6007e" stroke-miterlimit="10"/><polygon id="LOTE-27" points="609.53 966.83 651.22 993.05 669.54 967.78 627.23 941.24 609.53 966.83" fill="none" stroke="#e6007e" stroke-miterlimit="10"/><polygon id="LOTE-28" points="629.73 936.83 671.42 963.05 689.73 937.78 647.43 911.23 629.73 936.83" fill="none" stroke="#e6007e" stroke-miterlimit="10"/><polygon id="LOTE-29" points="648.9 909.47 690.59 935.68 708.9 910.41 666.6 883.87 648.9 909.47" fill="none" stroke="#e6007e" stroke-miterlimit="10"/><polygon id="LOTE-30" points="670.92 880.24 712.61 906.46 730.93 881.19 688.62 854.64 670.92 880.24" fill="none" stroke="#e6007e" stroke-miterlimit="10"/><polygon id="LOTE-31" points="690.98 850.58 732.67 876.8 750.98 851.53 708.68 824.98 690.98 850.58" fill="none" stroke="#e6007e" stroke-miterlimit="10"/><polygon id="LOTE-32" points="711.85 821.4 753.54 847.62 771.85 822.35 729.55 795.8 711.85 821.4" fill="none" stroke="#e6007e" stroke-miterlimit="10"/><polygon id="LOTE-33" points="732.7 792.01 774.39 818.23 792.7 792.96 750.4 766.42 732.7 792.01" fill="none" stroke="#e6007e" stroke-miterlimit="10"/><polygon id="LOTE-34" points="752.84 762.19 794.53 788.41 812.85 763.14 770.54 736.59 752.84 762.19" fill="none" stroke="#e6007e" stroke-miterlimit="10"/><polygon id="LOTE-35" points="773.41 732.9 815.1 759.12 833.41 733.85 791.11 707.31 773.41 732.9" fill="none" stroke="#e6007e" stroke-miterlimit="10"/><polygon id="LOTE-36" points="794.28 703.38 835.97 729.6 854.29 704.33 811.98 677.78 794.28 703.38" fill="none" stroke="#e6007e" stroke-miterlimit="10"/><polygon id="LOTE-37" points="814.79 674.62 856.48 700.83 874.8 675.56 832.49 649.02 814.79 674.62" fill="none" stroke="#e6007e" stroke-miterlimit="10"/><polygon id="LOTE-38" points="835.65 645.02 877.34 671.24 895.66 645.97 853.35 619.42 835.65 645.02" fill="none" stroke="#e6007e" stroke-miterlimit="10"/><polygon id="LOTE-39" points="855.31 616.33 897 642.54 915.32 617.27 873.01 590.73 855.31 616.33" fill="none" stroke="#e6007e" stroke-miterlimit="10"/><polygon id="LOTE-40" points="876.39 586.14 918.08 612.36 936.4 587.09 894.09 560.54 876.39 586.14" fill="none" stroke="#e6007e" stroke-miterlimit="10"/><polygon id="LOTE-41" points="896.78 557.06 938.47 583.28 956.79 558.01 914.48 531.46 896.78 557.06" fill="none" stroke="#e6007e" stroke-miterlimit="10"/><polygon id="LOTE-42" points="918.08 527.49 959.77 553.71 978.08 528.44 935.78 501.89 918.08 527.49" fill="none" stroke="#e6007e" stroke-miterlimit="10"/><polygon id="LOTE-43" points="938.73 498.15 980.42 524.37 998.73 499.1 956.43 472.55 938.73 498.15" fill="none" stroke="#e6007e" stroke-miterlimit="10"/><polygon id="LOTE-44" points="958.84 468.67 1000.53 494.89 1018.84 469.62 976.54 443.08 958.84 468.67" fill="none" stroke="#e6007e" stroke-miterlimit="10"/><polygon id="LOTE-45" points="979.39 439.6 1021.08 465.82 1039.39 440.55 997.09 414 979.39 439.6" fill="none" stroke="#e6007e" stroke-miterlimit="10"/><polygon id="LOTE-46" points="999.9 410.38 1041.59 436.6 1059.91 411.33 1017.6 384.78 999.9 410.38" fill="none" stroke="#e6007e" stroke-miterlimit="10"/><polygon id="LOTE-47" points="1023.96 374.58 1072.48 386.5 1080.99 356.98 1031.78 344.94 1023.96 374.58" fill="none" stroke="#e6007e" stroke-miterlimit="10"/><polygon id="LOTE-48" points="1033.49 340.61 1082 352.54 1090.51 323.02 1041.3 310.97 1033.49 340.61" fill="none" stroke="#e6007e" stroke-miterlimit="10"/><polygon id="LOTE-49" points="1043.71 306.89 1092.23 318.81 1100.74 289.29 1051.53 277.25 1043.71 306.89" fill="none" stroke="#e6007e" stroke-miterlimit="10"/><polygon id="LOTE-50" points="1053.61 273 1102.12 284.92 1110.63 255.4 1061.42 243.36 1053.61 273" fill="none" stroke="#e6007e" stroke-miterlimit="10"/><polygon id="LOTE-51" points="1248.93 223.45 1212.79 256.16 1235.1 278.4 1271.72 245.2 1248.93 223.45" fill="none" stroke="#e6007e" stroke-miterlimit="10"/><polygon id="LOTE-52" points="1274.29 248.15 1238.15 280.86 1260.46 303.1 1297.07 269.9 1274.29 248.15" fill="none" stroke="#e6007e" stroke-miterlimit="10"/><polygon id="LOTE-53" points="1300.38 273.2 1264.24 305.91 1286.55 328.15 1323.17 294.95 1300.38 273.2" fill="none" stroke="#e6007e" stroke-miterlimit="10"/><polygon id="LOTE-54" points="1325.86 298.23 1289.72 330.94 1312.04 353.18 1348.65 319.98 1325.86 298.23" fill="none" stroke="#e6007e" stroke-miterlimit="10"/><polygon id="LOTE-55" points="1351.39 322.95 1315.24 355.66 1337.56 377.9 1374.17 344.7 1351.39 322.95" fill="none" stroke="#e6007e" stroke-miterlimit="10"/><polygon id="LOTE-56" points="1377.09 347.48 1340.94 380.18 1363.26 402.43 1399.87 369.23 1377.09 347.48" fill="none" stroke="#e6007e" stroke-miterlimit="10"/><polygon id="LOTE-57" points="1402.92 372.65 1366.78 405.35 1389.09 427.6 1425.7 394.39 1402.92 372.65" fill="none" stroke="#e6007e" stroke-miterlimit="10"/><polygon id="LOTE-58" points="1428.71 397.2 1392.56 429.9 1414.88 452.15 1451.49 418.95 1428.71 397.2" fill="none" stroke="#e6007e" stroke-miterlimit="10"/><polygon id="LOTE-59" points="1453.75 421.65 1417.61 454.36 1439.92 476.6 1476.53 443.4 1453.75 421.65" fill="none" stroke="#e6007e" stroke-miterlimit="10"/><polygon id="LOTE-60" points="1479.45 447.24 1443.31 479.95 1465.62 502.19 1502.23 468.99 1479.45 447.24" fill="none" stroke="#e6007e" stroke-miterlimit="10"/><polygon id="LOTE-61" points="1504.72 471.69 1468.58 504.4 1490.89 526.64 1527.5 493.44 1504.72 471.69" fill="none" stroke="#e6007e" stroke-miterlimit="10"/><polygon id="LOTE-62" points="1531.01 496.48 1494.87 529.19 1517.18 551.43 1553.79 518.23 1531.01 496.48" fill="none" stroke="#e6007e" stroke-miterlimit="10"/><polygon id="LOTE-63" points="1556.79 521.6 1520.65 554.3 1542.96 576.54 1579.58 543.34 1556.79 521.6" fill="none" stroke="#e6007e" stroke-miterlimit="10"/><polygon id="LOTE-64" points="1582.74 546.71 1546.59 579.41 1568.91 601.66 1605.52 568.46 1582.74 546.71" fill="none" stroke="#e6007e" stroke-miterlimit="10"/><polygon id="LOTE-65" points="1608.68 572.02 1572.54 604.72 1594.85 626.96 1631.47 593.76 1608.68 572.02" fill="none" stroke="#e6007e" stroke-miterlimit="10"/><polygon id="LOTE-66" points="1634.78 597.07 1598.64 629.77 1620.95 652.02 1657.56 618.82 1634.78 597.07" fill="none" stroke="#e6007e" stroke-miterlimit="10"/><polygon id="LOTE-67" points="1660.26 622.1 1624.12 654.8 1646.43 677.05 1683.05 643.84 1660.26 622.1" fill="none" stroke="#e6007e" stroke-miterlimit="10"/><polygon id="LOTE-68" points="1685.78 646.81 1649.64 679.52 1671.95 701.76 1708.57 668.56 1685.78 646.81" fill="none" stroke="#e6007e" stroke-miterlimit="10"/><polygon id="LOTE-69" points="1711.48 671.34 1675.34 704.05 1697.65 726.29 1734.27 693.09 1711.48 671.34" fill="none" stroke="#e6007e" stroke-miterlimit="10"/><polygon id="LOTE-70" points="1611.82 791.24 1570.23 764.9 1551.82 790.11 1594.04 816.79 1611.82 791.24" fill="none" stroke="#e6007e" stroke-miterlimit="10"/><polygon id="LOTE-71" points="1591.44 820.38 1549.84 794.04 1531.44 819.25 1573.65 845.93 1591.44 820.38" fill="none" stroke="#e6007e" stroke-miterlimit="10"/><polygon id="LOTE-72" points="1570.9 850.01 1529.3 823.67 1510.9 848.88 1553.11 875.56 1570.9 850.01" fill="none" stroke="#e6007e" stroke-miterlimit="10"/><polygon id="LOTE-73" points="1550.42 879.05 1508.82 852.71 1490.41 877.92 1532.63 904.6 1550.42 879.05" fill="none" stroke="#e6007e" stroke-miterlimit="10"/><polygon id="LOTE-74" points="1529.56 908.27 1487.96 881.93 1469.56 907.14 1511.77 933.82 1529.56 908.27" fill="none" stroke="#e6007e" stroke-miterlimit="10"/><polygon id="LOTE-75" points="1509.31 937.67 1467.71 911.32 1449.31 936.54 1491.52 963.21 1509.31 937.67" fill="none" stroke="#e6007e" stroke-miterlimit="10"/><polygon id="LOTE-76" points="1488.81 966.7 1447.21 940.36 1428.81 965.57 1471.02 992.25 1488.81 966.7" fill="none" stroke="#e6007e" stroke-miterlimit="10"/><polygon id="LOTE-77" points="1467.39 997.24 1425.79 970.89 1407.39 996.1 1449.6 1022.78 1467.39 997.24" fill="none" stroke="#e6007e" stroke-miterlimit="10"/><polygon id="LOTE-78" points="1446.22 1027.39 1404.63 1001.04 1386.22 1026.26 1428.44 1052.93 1446.22 1027.39" fill="none" stroke="#e6007e" stroke-miterlimit="10"/><polygon id="LOTE-79" points="1426.01 1056.8 1384.41 1030.46 1366.01 1055.67 1408.22 1082.35 1426.01 1056.8" fill="none" stroke="#e6007e" stroke-miterlimit="10"/><polygon id="LOTE-80" points="1405.36 1085.81 1363.76 1059.46 1345.36 1084.68 1387.57 1111.35 1405.36 1085.81" fill="none" stroke="#e6007e" stroke-miterlimit="10"/><polygon id="LOTE-81" points="1384.74 1114.97 1343.15 1088.62 1324.74 1113.84 1366.95 1140.51 1384.74 1114.97" fill="none" stroke="#e6007e" stroke-miterlimit="10"/><polygon id="LOTE-82" points="1363.92 1144.17 1322.33 1117.83 1303.92 1143.04 1346.14 1169.72 1363.92 1144.17" fill="none" stroke="#e6007e" stroke-miterlimit="10"/><polygon id="LOTE-83" points="1344.49 1173.8 1302.9 1147.46 1284.49 1172.67 1326.71 1199.35 1344.49 1173.8" fill="none" stroke="#e6007e" stroke-miterlimit="10"/><polygon id="LOTE-84" points="1323.87 1202.52 1282.27 1176.17 1263.87 1201.39 1306.08 1228.06 1323.87 1202.52" fill="none" stroke="#e6007e" stroke-miterlimit="10"/><polygon id="LOTE-85" points="1303.57 1232.29 1261.97 1205.94 1243.57 1231.16 1285.78 1257.83 1303.57 1232.29" fill="none" stroke="#e6007e" stroke-miterlimit="10"/><polygon id="LOTE-86" points="1497.36 672.73 1455.76 646.39 1437.36 671.6 1479.57 698.28 1497.36 672.73" fill="none" stroke="#e6007e" stroke-miterlimit="10"/><polygon id="LOTE-87" points="1476.97 701.87 1435.38 675.53 1416.97 700.74 1459.18 727.42 1476.97 701.87" fill="none" stroke="#e6007e" stroke-miterlimit="10"/><polygon id="LOTE-88" points="1456.44 731.5 1414.84 705.16 1396.44 730.37 1438.65 757.05 1456.44 731.5" fill="none" stroke="#e6007e" stroke-miterlimit="10"/><polygon id="LOTE-89" points="1435.95 760.54 1394.35 734.2 1375.95 759.41 1418.16 786.09 1435.95 760.54" fill="none" stroke="#e6007e" stroke-miterlimit="10"/><polygon id="LOTE-90" points="1415.1 789.76 1373.5 763.42 1355.09 788.63 1397.31 815.31 1415.1 789.76" fill="none" stroke="#e6007e" stroke-miterlimit="10"/><polygon id="LOTE-91" points="1394.84 819.16 1353.25 792.81 1334.84 818.03 1377.06 844.7 1394.84 819.16" fill="none" stroke="#e6007e" stroke-miterlimit="10"/><polygon id="LOTE-92" points="1374.34 848.19 1332.75 821.85 1314.34 847.06 1356.56 873.74 1374.34 848.19" fill="none" stroke="#e6007e" stroke-miterlimit="10"/><polygon id="LOTE-93" points="1352.92 878.73 1311.33 852.38 1292.92 877.59 1335.14 904.27 1352.92 878.73" fill="none" stroke="#e6007e" stroke-miterlimit="10"/><polygon id="LOTE-94" points="1331.76 908.88 1290.16 882.53 1271.76 907.75 1313.97 934.42 1331.76 908.88" fill="none" stroke="#e6007e" stroke-miterlimit="10"/><polygon id="LOTE-95" points="1311.55 938.29 1269.95 911.95 1251.55 937.16 1293.76 963.84 1311.55 938.29" fill="none" stroke="#e6007e" stroke-miterlimit="10"/><polygon id="LOTE-96" points="1290.9 967.3 1249.3 940.95 1230.9 966.17 1273.11 992.84 1290.9 967.3" fill="none" stroke="#e6007e" stroke-miterlimit="10"/><polygon id="LOTE-97" points="1270.28 996.46 1228.68 970.11 1210.28 995.33 1252.49 1022 1270.28 996.46" fill="none" stroke="#e6007e" stroke-miterlimit="10"/><polygon id="LOTE-98" points="1249.46 1025.66 1207.86 999.32 1189.46 1024.53 1231.67 1051.21 1249.46 1025.66" fill="none" stroke="#e6007e" stroke-miterlimit="10"/><polygon id="LOTE-99" points="1230.03 1055.29 1188.43 1028.95 1170.03 1054.16 1212.24 1080.84 1230.03 1055.29" fill="none" stroke="#e6007e" stroke-miterlimit="10"/><polygon id="LOTE-100" points="1209.4 1084.01 1167.81 1057.66 1149.4 1082.88 1191.61 1109.55 1209.4 1084.01" fill="none" stroke="#e6007e" stroke-miterlimit="10"/><polygon id="LOTE-101" points="1189.11 1113.78 1147.51 1087.43 1129.11 1112.65 1171.32 1139.32 1189.11 1113.78" fill="none" stroke="#e6007e" stroke-miterlimit="10"/><polygon id="LOTE-102" points="1167.94 1142.83 1126.35 1116.49 1107.94 1141.7 1150.16 1168.38 1167.94 1142.83" fill="none" stroke="#e6007e" stroke-miterlimit="10"/><polygon id="LOTE-103" points="1147.13 1172.03 1105.53 1145.69 1087.13 1170.9 1129.34 1197.58 1147.13 1172.03" fill="none" stroke="#e6007e" stroke-miterlimit="10"/><polygon id="LOTE-104" points="1127.7 1201.66 1086.1 1175.32 1067.7 1200.53 1109.91 1227.21 1127.7 1201.66" fill="none" stroke="#e6007e" stroke-miterlimit="10"/><polygon id="LOTE-105" points="1107.07 1230.38 1065.47 1204.04 1047.07 1229.25 1089.28 1255.93 1107.07 1230.38" fill="none" stroke="#e6007e" stroke-miterlimit="10"/><polygon id="LOTE-106" points="1086.77 1260.15 1045.17 1233.8 1026.77 1259.02 1068.98 1285.69 1086.77 1260.15" fill="none" stroke="#e6007e" stroke-miterlimit="10"/><polygon id="LOTE-107" points="1069.85 1302.3 1021.42 1293.41 1013.78 1323.68 1062.9 1332.64 1069.85 1302.3" fill="none" stroke="#e6007e" stroke-miterlimit="10"/><polygon id="LOTE-108" points="1061.91 1337.04 1013.48 1328.16 1005.83 1358.42 1054.96 1367.38 1061.91 1337.04" fill="none" stroke="#e6007e" stroke-miterlimit="10"/><polygon id="LOTE-109" points="1053.51 1371.39 1005.08 1362.51 997.44 1392.77 1046.57 1401.73 1053.51 1371.39" fill="none" stroke="#e6007e" stroke-miterlimit="10"/><polygon id="LOTE-110" points="1045.82 1406.59 997.39 1397.7 989.75 1427.97 1038.87 1436.93 1045.82 1406.59" fill="none" stroke="#e6007e" stroke-miterlimit="10"/><polygon id="LOTE-111" points="1039.06 1440.44 990.63 1431.56 982.98 1461.83 1032.11 1470.79 1039.06 1440.44" fill="none" stroke="#e6007e" stroke-miterlimit="10"/><polygon id="LOTE-112" points="1030.67 1475.31 982.24 1466.43 974.6 1496.7 1023.72 1505.65 1030.67 1475.31" fill="none" stroke="#e6007e" stroke-miterlimit="10"/><polygon id="LOTE-113" points="1022.72 1510.06 974.29 1501.18 966.65 1531.44 1015.78 1540.4 1022.72 1510.06" fill="none" stroke="#e6007e" stroke-miterlimit="10"/><polygon id="LOTE-114" points="1015.33 1543.41 966.9 1534.52 959.26 1564.79 1008.38 1573.75 1015.33 1543.41" fill="none" stroke="#e6007e" stroke-miterlimit="10"/><polygon id="LOTE-115" points="1006.91 1578.8 958.47 1569.91 950.83 1600.18 999.96 1609.14 1006.91 1578.8" fill="none" stroke="#e6007e" stroke-miterlimit="10"/><polygon id="LOTE-116" points="865.97 1561.03 914.4 1569.91 922.04 1539.65 872.92 1530.69 865.97 1561.03" fill="none" stroke="#e6007e" stroke-miterlimit="10"/><polygon id="LOTE-117" points="873.91 1526.29 922.34 1535.17 929.98 1504.9 880.86 1495.94 873.91 1526.29" fill="none" stroke="#e6007e" stroke-miterlimit="10"/><polygon id="LOTE-118" points="882.3 1491.94 930.74 1500.82 938.38 1470.56 889.25 1461.6 882.3 1491.94" fill="none" stroke="#e6007e" stroke-miterlimit="10"/><polygon id="LOTE-119" points="890 1456.74 938.43 1465.62 946.07 1435.36 896.95 1426.4 890 1456.74" fill="none" stroke="#e6007e" stroke-miterlimit="10"/><polygon id="LOTE-120" points="896.76 1422.88 945.19 1431.76 952.83 1401.5 903.71 1392.54 896.76 1422.88" fill="none" stroke="#e6007e" stroke-miterlimit="10"/><polygon id="LOTE-121" points="905.15 1388.01 953.58 1396.9 961.22 1366.63 912.1 1357.67 905.15 1388.01" fill="none" stroke="#e6007e" stroke-miterlimit="10"/><polygon id="LOTE-122" points="913.09 1353.27 961.52 1362.15 969.17 1331.88 920.04 1322.93 913.09 1353.27" fill="none" stroke="#e6007e" stroke-miterlimit="10"/><polygon id="LOTE-123" points="920.49 1319.92 968.92 1328.8 976.56 1298.54 927.43 1289.58 920.49 1319.92" fill="none" stroke="#e6007e" stroke-miterlimit="10"/><polygon id="LOTE-124" points="928.91 1284.53 977.34 1293.41 984.98 1263.15 935.86 1254.19 928.91 1284.53" fill="none" stroke="#e6007e" stroke-miterlimit="10"/><polygon id="LOTE-125" points="940.34 1224.44 981.91 1250.84 1000.34 1225.65 958.17 1198.92 940.34 1224.44" fill="none" stroke="#e6007e" stroke-miterlimit="10"/><polygon id="LOTE-126" points="960.77 1195.33 1002.33 1221.73 1020.77 1196.54 978.59 1169.81 960.77 1195.33" fill="none" stroke="#e6007e" stroke-miterlimit="10"/><polygon id="LOTE-127" points="981.34 1165.72 1022.91 1192.12 1041.34 1166.93 999.17 1140.2 981.34 1165.72" fill="none" stroke="#e6007e" stroke-miterlimit="10"/><polygon id="LOTE-128" points="1001.87 1136.71 1043.43 1163.11 1061.87 1137.92 1019.69 1111.19 1001.87 1136.71" fill="none" stroke="#e6007e" stroke-miterlimit="10"/><polygon id="LOTE-129" points="1022.76 1107.52 1064.32 1133.92 1082.76 1108.73 1040.58 1082 1022.76 1107.52" fill="none" stroke="#e6007e" stroke-miterlimit="10"/><polygon id="LOTE-130" points="1043.05 1078.15 1084.61 1104.55 1103.05 1079.36 1060.87 1052.63 1043.05 1078.15" fill="none" stroke="#e6007e" stroke-miterlimit="10"/><polygon id="LOTE-131" points="1063.59 1049.14 1105.15 1075.54 1123.59 1050.35 1081.41 1023.62 1063.59 1049.14" fill="none" stroke="#e6007e" stroke-miterlimit="10"/><polygon id="LOTE-132" points="1085.05 1018.64 1126.61 1045.04 1145.05 1019.85 1102.87 993.11 1085.05 1018.64" fill="none" stroke="#e6007e" stroke-miterlimit="10"/><polygon id="LOTE-133" points="1106.25 988.51 1147.81 1014.91 1166.25 989.72 1124.07 962.99 1106.25 988.51" fill="none" stroke="#e6007e" stroke-miterlimit="10"/><polygon id="LOTE-134" points="1126.5 959.12 1168.06 985.52 1186.5 960.33 1144.32 933.6 1126.5 959.12" fill="none" stroke="#e6007e" stroke-miterlimit="10"/><polygon id="LOTE-135" points="1147.19 930.14 1188.75 956.54 1207.19 931.35 1165.01 904.62 1147.19 930.14" fill="none" stroke="#e6007e" stroke-miterlimit="10"/><polygon id="LOTE-136" points="1167.84 901.01 1209.41 927.41 1227.84 902.22 1185.67 875.49 1167.84 901.01" fill="none" stroke="#e6007e" stroke-miterlimit="10"/><polygon id="LOTE-137" points="1188.7 871.83 1230.26 898.23 1248.7 873.04 1206.52 846.31 1188.7 871.83" fill="none" stroke="#e6007e" stroke-miterlimit="10"/><polygon id="LOTE-138" points="1208.17 842.23 1249.73 868.63 1268.17 843.44 1225.99 816.71 1208.17 842.23" fill="none" stroke="#e6007e" stroke-miterlimit="10"/><polygon id="LOTE-139" points="1228.83 813.54 1270.4 839.94 1288.83 814.75 1246.65 788.02 1228.83 813.54" fill="none" stroke="#e6007e" stroke-miterlimit="10"/><polygon id="LOTE-140" points="1249.17 783.79 1290.73 810.19 1309.17 785.01 1266.99 758.27 1249.17 783.79" fill="none" stroke="#e6007e" stroke-miterlimit="10"/><polygon id="LOTE-141" points="1270.37 754.77 1311.93 781.17 1330.37 755.98 1288.19 729.25 1270.37 754.77" fill="none" stroke="#e6007e" stroke-miterlimit="10"/><polygon id="LOTE-142" points="1291.22 725.59 1332.79 751.99 1351.22 726.8 1309.05 700.07 1291.22 725.59" fill="none" stroke="#e6007e" stroke-miterlimit="10"/><polygon id="LOTE-143" points="1310.69 695.99 1352.26 722.39 1370.69 697.2 1328.51 670.47 1310.69 695.99" fill="none" stroke="#e6007e" stroke-miterlimit="10"/><polygon id="LOTE-144" points="1331.36 667.3 1372.92 693.7 1391.36 668.51 1349.18 641.78 1331.36 667.3" fill="none" stroke="#e6007e" stroke-miterlimit="10"/><polygon id="LOTE-145" points="1351.69 637.56 1393.26 663.96 1411.69 638.77 1369.51 612.04 1351.69 637.56" fill="none" stroke="#e6007e" stroke-miterlimit="10"/><polygon id="LOTE-146" points="1372.53 607.29 1414.09 633.69 1432.53 608.5 1390.35 581.77 1372.53 607.29" fill="none" stroke="#e6007e" stroke-miterlimit="10"/><polygon id="LOTE-147" points="1310.69 490.55 1269.12 464.15 1250.69 489.34 1292.86 516.07 1310.69 490.55" fill="none" stroke="#e6007e" stroke-miterlimit="10"/><polygon id="LOTE-148" points="1290.26 519.66 1248.7 493.26 1230.26 518.45 1272.44 545.18 1290.26 519.66" fill="none" stroke="#e6007e" stroke-miterlimit="10"/><polygon id="LOTE-149" points="1269.69 549.27 1228.12 522.87 1209.69 548.06 1251.86 574.79 1269.69 549.27" fill="none" stroke="#e6007e" stroke-miterlimit="10"/><polygon id="LOTE-150" points="1249.16 578.28 1207.6 551.88 1189.17 577.07 1231.34 603.8 1249.16 578.28" fill="none" stroke="#e6007e" stroke-miterlimit="10"/><polygon id="LOTE-151" points="1228.27 607.47 1186.71 581.07 1168.27 606.26 1210.45 632.99 1228.27 607.47" fill="none" stroke="#e6007e" stroke-miterlimit="10"/><polygon id="LOTE-152" points="1207.98 636.84 1166.42 610.44 1147.98 635.63 1190.16 662.36 1207.98 636.84" fill="none" stroke="#e6007e" stroke-miterlimit="10"/><polygon id="LOTE-153" points="1187.44 665.85 1145.88 639.45 1127.44 664.64 1169.62 691.37 1187.44 665.85" fill="none" stroke="#e6007e" stroke-miterlimit="10"/><polygon id="LOTE-154" points="1165.98 696.35 1124.42 669.95 1105.98 695.14 1148.16 721.87 1165.98 696.35" fill="none" stroke="#e6007e" stroke-miterlimit="10"/><polygon id="LOTE-155" points="1144.78 726.48 1103.22 700.08 1084.78 725.27 1126.96 752 1144.78 726.48" fill="none" stroke="#e6007e" stroke-miterlimit="10"/><polygon id="LOTE-156" points="1124.53 755.87 1082.97 729.47 1064.53 754.66 1106.71 781.39 1124.53 755.87" fill="none" stroke="#e6007e" stroke-miterlimit="10"/><polygon id="LOTE-157" points="1103.84 784.85 1062.28 758.45 1043.84 783.64 1086.02 810.37 1103.84 784.85" fill="none" stroke="#e6007e" stroke-miterlimit="10"/><polygon id="LOTE-158" points="1083.19 813.98 1041.62 787.58 1023.19 812.77 1065.36 839.5 1083.19 813.98" fill="none" stroke="#e6007e" stroke-miterlimit="10"/><polygon id="LOTE-159" points="1062.33 843.16 1020.77 816.76 1002.33 841.95 1044.51 868.68 1062.33 843.16" fill="none" stroke="#e6007e" stroke-miterlimit="10"/><polygon id="LOTE-160" points="1042.86 872.76 1001.3 846.36 982.86 871.55 1025.04 898.28 1042.86 872.76" fill="none" stroke="#e6007e" stroke-miterlimit="10"/><polygon id="LOTE-161" points="1022.2 901.45 980.63 875.05 962.2 900.24 1004.38 926.97 1022.2 901.45" fill="none" stroke="#e6007e" stroke-miterlimit="10"/><polygon id="LOTE-162" points="1001.86 931.19 960.3 904.79 941.86 929.98 984.04 956.71 1001.86 931.19" fill="none" stroke="#e6007e" stroke-miterlimit="10"/><polygon id="LOTE-163" points="980.66 960.22 939.1 933.82 920.66 959.01 962.84 985.74 980.66 960.22" fill="none" stroke="#e6007e" stroke-miterlimit="10"/><polygon id="LOTE-164" points="959.81 989.4 918.24 963 899.81 988.19 941.98 1014.92 959.81 989.4" fill="none" stroke="#e6007e" stroke-miterlimit="10"/><polygon id="LOTE-165" points="940.34 1019 898.77 992.6 880.34 1017.79 922.52 1044.52 940.34 1019" fill="none" stroke="#e6007e" stroke-miterlimit="10"/><polygon id="LOTE-166" points="919.67 1047.69 878.11 1021.29 859.67 1046.48 901.85 1073.21 919.67 1047.69" fill="none" stroke="#e6007e" stroke-miterlimit="10"/><polygon id="LOTE-167" points="899.34 1077.43 857.77 1051.03 839.34 1076.22 881.52 1102.95 899.34 1077.43" fill="none" stroke="#e6007e" stroke-miterlimit="10"/><polygon id="LOTE-168" points="878.5 1107.7 836.94 1081.3 818.5 1106.49 860.68 1133.22 878.5 1107.7" fill="none" stroke="#e6007e" stroke-miterlimit="10"/><polygon id="LOTE-169" points="798.34 1135.33 839.9 1161.73 858.34 1136.54 816.16 1109.81 798.34 1135.33" fill="none" stroke="#e6007e" stroke-miterlimit="10"/><polygon id="LOTE-170" points="829.63 1172.95 781.2 1164.06 773.55 1194.33 822.68 1203.29 829.63 1172.95" fill="none" stroke="#e6007e" stroke-miterlimit="10"/><polygon id="LOTE-171" points="821.68 1207.69 773.25 1198.81 765.61 1229.08 814.74 1238.03 821.68 1207.69" fill="none" stroke="#e6007e" stroke-miterlimit="10"/><polygon id="LOTE-172" points="813.29 1242.04 764.86 1233.16 757.22 1263.42 806.34 1272.38 813.29 1242.04" fill="none" stroke="#e6007e" stroke-miterlimit="10"/><polygon id="LOTE-173" points="805.6 1277.24 757.17 1268.36 749.52 1298.62 798.65 1307.58 805.6 1277.24" fill="none" stroke="#e6007e" stroke-miterlimit="10"/><polygon id="LOTE-174" points="798.83 1311.1 750.4 1302.21 742.76 1332.48 791.89 1341.44 798.83 1311.1" fill="none" stroke="#e6007e" stroke-miterlimit="10"/><polygon id="LOTE-175" points="790.44 1345.96 742.01 1337.08 734.37 1367.35 783.5 1376.31 790.44 1345.96" fill="none" stroke="#e6007e" stroke-miterlimit="10"/><polygon id="LOTE-176" points="782.5 1380.71 734.07 1371.83 726.43 1402.09 775.55 1411.05 782.5 1380.71" fill="none" stroke="#e6007e" stroke-miterlimit="10"/><polygon id="LOTE-177" points="775.11 1414.06 726.68 1405.18 719.04 1435.44 768.16 1444.4 775.11 1414.06" fill="none" stroke="#e6007e" stroke-miterlimit="10"/><polygon id="LOTE-178" points="766.68 1449.45 718.25 1440.57 710.61 1470.83 759.74 1479.79 766.68 1449.45" fill="none" stroke="#e6007e" stroke-miterlimit="10"/><polygon id="LOTE-179" points="626.7 1431.78 675.13 1440.67 682.77 1410.4 633.65 1401.44 626.7 1431.78" fill="none" stroke="#e6007e" stroke-miterlimit="10"/><polygon id="LOTE-180" points="634.64 1397.04 683.07 1405.92 690.72 1375.65 641.59 1366.7 634.64 1397.04" fill="none" stroke="#e6007e" stroke-miterlimit="10"/><polygon id="LOTE-181" points="643.04 1362.69 691.47 1371.57 699.11 1341.31 649.98 1332.35 643.04 1362.69" fill="none" stroke="#e6007e" stroke-miterlimit="10"/><polygon id="LOTE-182" points="650.73 1327.49 699.16 1336.37 706.8 1306.11 657.68 1297.15 650.73 1327.49" fill="none" stroke="#e6007e" stroke-miterlimit="10"/><polygon id="LOTE-183" points="657.49 1293.63 705.92 1302.52 713.57 1272.25 664.44 1263.29 657.49 1293.63" fill="none" stroke="#e6007e" stroke-miterlimit="10"/><polygon id="LOTE-184" points="665.88 1258.77 714.31 1267.65 721.95 1237.38 672.83 1228.42 665.88 1258.77" fill="none" stroke="#e6007e" stroke-miterlimit="10"/><polygon id="LOTE-185" points="673.83 1224.02 722.26 1232.9 729.9 1202.64 680.77 1193.68 673.83 1224.02" fill="none" stroke="#e6007e" stroke-miterlimit="10"/><polygon id="LOTE-186" points="681.22 1190.67 729.65 1199.55 737.29 1169.29 688.17 1160.33 681.22 1190.67" fill="none" stroke="#e6007e" stroke-miterlimit="10"/><polygon id="LOTE-187" points="689.64 1155.28 738.08 1164.17 745.72 1133.9 696.59 1124.94 689.64 1155.28" fill="none" stroke="#e6007e" stroke-miterlimit="10"/><polygon id="LOTE-188" points="713.17 1099.84 754.74 1126.24 773.17 1101.05 731 1074.32 713.17 1099.84" fill="none" stroke="#e6007e" stroke-miterlimit="10"/><polygon id="LOTE-189" points="733.02 1071.84 774.58 1098.24 793.02 1073.05 750.84 1046.32 733.02 1071.84" fill="none" stroke="#e6007e" stroke-miterlimit="10"/><polygon id="LOTE-190" points="753.44 1042.73 795.01 1069.13 813.44 1043.94 771.27 1017.21 753.44 1042.73" fill="none" stroke="#e6007e" stroke-miterlimit="10"/><polygon id="LOTE-191" points="774.02 1013.12 815.58 1039.52 834.02 1014.33 791.84 987.6 774.02 1013.12" fill="none" stroke="#e6007e" stroke-miterlimit="10"/><polygon id="LOTE-192" points="794.54 984.11 836.11 1010.51 854.54 985.32 812.36 958.59 794.54 984.11" fill="none" stroke="#e6007e" stroke-miterlimit="10"/><polygon id="LOTE-193" points="815.44 954.92 857 981.32 875.43 956.13 833.26 929.4 815.44 954.92" fill="none" stroke="#e6007e" stroke-miterlimit="10"/><polygon id="LOTE-194" points="835.72 925.55 877.29 951.95 895.72 926.76 853.55 900.03 835.72 925.55" fill="none" stroke="#e6007e" stroke-miterlimit="10"/><polygon id="LOTE-195" points="856.26 896.54 897.83 922.94 916.26 897.75 874.08 871.02 856.26 896.54" fill="none" stroke="#e6007e" stroke-miterlimit="10"/><polygon id="LOTE-196" points="877.72 866.03 919.29 892.43 937.72 867.24 895.54 840.51 877.72 866.03" fill="none" stroke="#e6007e" stroke-miterlimit="10"/><polygon id="LOTE-197" points="898.93 835.91 940.49 862.31 958.92 837.12 916.75 810.39 898.93 835.91" fill="none" stroke="#e6007e" stroke-miterlimit="10"/><polygon id="LOTE-198" points="919.18 806.52 960.74 832.92 979.17 807.73 937 781 919.18 806.52" fill="none" stroke="#e6007e" stroke-miterlimit="10"/><polygon id="LOTE-199" points="939.86 777.54 981.43 803.94 999.86 778.75 957.69 752.02 939.86 777.54" fill="none" stroke="#e6007e" stroke-miterlimit="10"/><polygon id="LOTE-200" points="960.52 748.41 1002.08 774.81 1020.52 749.62 978.34 722.89 960.52 748.41" fill="none" stroke="#e6007e" stroke-miterlimit="10"/><polygon id="LOTE-201" points="981.38 719.23 1022.94 745.63 1041.38 720.44 999.2 693.71 981.38 719.23" fill="none" stroke="#e6007e" stroke-miterlimit="10"/><polygon id="LOTE-202" points="1000.84 689.63 1042.41 716.03 1060.84 690.84 1018.67 664.11 1000.84 689.63" fill="none" stroke="#e6007e" stroke-miterlimit="10"/><polygon id="LOTE-203" points="1021.51 660.94 1063.07 687.33 1081.51 662.15 1039.33 635.41 1021.51 660.94" fill="none" stroke="#e6007e" stroke-miterlimit="10"/><polygon id="LOTE-204" points="1041.84 631.19 1083.41 657.59 1101.84 632.4 1059.67 605.67 1041.84 631.19" fill="none" stroke="#e6007e" stroke-miterlimit="10"/><polygon id="LOTE-205" points="1063.04 602.17 1104.61 628.57 1123.04 603.38 1080.86 576.65 1063.04 602.17" fill="none" stroke="#e6007e" stroke-miterlimit="10"/><polygon id="LOTE-206" points="1083.9 572.99 1125.46 599.39 1143.9 574.2 1101.72 547.47 1083.9 572.99" fill="none" stroke="#e6007e" stroke-miterlimit="10"/><polygon id="LOTE-207" points="1103.37 543.39 1144.93 569.79 1163.37 544.6 1121.19 517.87 1103.37 543.39" fill="none" stroke="#e6007e" stroke-miterlimit="10"/><polygon id="LOTE-208" points="1124.03 514.7 1165.6 541.1 1184.03 515.91 1141.85 489.18 1124.03 514.7" fill="none" stroke="#e6007e" stroke-miterlimit="10"/><polygon id="LOTE-209" points="1144.37 484.95 1185.93 511.35 1204.37 486.17 1162.19 459.43 1144.37 484.95" fill="none" stroke="#e6007e" stroke-miterlimit="10"/><polygon id="LOTE-210" points="1165.2 454.69 1206.77 481.09 1225.2 455.9 1183.02 429.17 1165.2 454.69" fill="none" stroke="#e6007e" stroke-miterlimit="10"/><polygon id="LOTE-211" points="1245.37 427.06 1203.81 400.66 1185.37 425.85 1227.55 452.58 1245.37 427.06" fill="none" stroke="#e6007e" stroke-miterlimit="10"/></svg>