<?xml version="1.0" encoding="UTF-8"?>
<svg id="Lotes_interactivos" xmlns="http://www.w3.org/2000/svg" width="462.51mm" height="851.71mm" viewBox="0 0 1311.04 2414.3">
  <path id="SAG1-M1" d="M185.93,1903.15l218.89,114.38s-25.19,103.15-28.94,111.66-15.66,22.13-52.43,14.98-135.4-50.47-135.4-50.47c0,0-5.19-174.3-5.19-178.85s3.06-11.7,3.06-11.7Z" fill="none" stroke="#16c8f2" stroke-miterlimit="10"/>
  <path id="SAG1-M3" d="M409.24,1933.57s27.74,15.49,31.32,17.53c3.57,2.04,2.21,10.89-4.77,34.89-6.98,24-11.74,39.66-11.74,39.66l-50.56-24.5,35.75-67.59Z" fill="none" stroke="#16c8f2" stroke-miterlimit="10"/>
  <polygon id="SAG1-M4" points="373.49 1914.51 409.24 1933.57 373.49 2001.16 337.67 1982.34 373.49 1914.51" fill="none" stroke="#16c8f2" stroke-miterlimit="10"/>
  <polygon id="SAG1-M5" points="337.67 1895.36 373.49 1914.51 337.67 1982.34 301.42 1963.5 337.67 1895.36" fill="none" stroke="#16c8f2" stroke-miterlimit="10"/>
  <polygon id="SAG1-M6" points="265.25 1944.6 301.42 1963.5 337.67 1895.36 300.69 1876.77 265.25 1944.6" fill="none" stroke="#16c8f2" stroke-miterlimit="10"/>
  <polygon id="SAG1-M7" points="229.24 1925.78 265.25 1858.13 300.69 1876.77 265.25 1944.6 229.24 1925.78" fill="none" stroke="#16c8f2" stroke-miterlimit="10"/>
  <path id="SAG1-M8" d="M206.73,1807.06h24.85v34.21l33.66,16.85-36,68.43-43.32-23.4,19.45-39.23s1.19-1.19,1.02-14.13.34-42.72.34-42.72Z" fill="none" stroke="#16c8f2" stroke-miterlimit="10"/>
  <path id="SAG1-M9" d="M178.39,1766.68l27.57,3.06.77,37.32h24.85v-32.72s6.3,1.28,11.66,1.28,10.47-.77,10.72-15.83c.26-15.06,0-31.91,0-31.91h-75.57v38.81Z" fill="none" stroke="#16c8f2" stroke-miterlimit="10"/>
  <polygon id="SAG1-M10" points="177.12 1690.09 178.39 1727.87 253.97 1727.87 254.08 1688.72 177.12 1690.09" fill="none" stroke="#16c8f2" stroke-miterlimit="10"/>
  <polygon id="SAG1-M11" points="177.12 1651.45 177.12 1690.09 254.08 1688.72 254.08 1651.45 177.12 1651.45" fill="none" stroke="#16c8f2" stroke-miterlimit="10"/>
  <polygon id="SAG1-M12" points="176.1 1613.49 177.12 1651.45 254.08 1651.45 253.37 1612.3 176.1 1613.49" fill="none" stroke="#16c8f2" stroke-miterlimit="10"/>
  <polygon id="SAG1-M13" points="176.1 1575.02 176.1 1613.49 253.37 1612.3 253.37 1574 176.1 1575.02" fill="none" stroke="#16c8f2" stroke-miterlimit="10"/>
  <polygon id="SAG1-M14" points="176.1 1537.06 176.1 1575.02 253.37 1574 252.35 1535.87 176.1 1537.06" fill="none" stroke="#16c8f2" stroke-miterlimit="10"/>
  <polygon id="SAG1-M15" points="175.07 1500.81 176.1 1537.06 252.35 1535.87 253.37 1499.96 175.07 1500.81" fill="none" stroke="#16c8f2" stroke-miterlimit="10"/>
  <polygon id="SAG1-M16" points="175.07 1464.38 175.07 1500.81 253.37 1499.96 254.73 1464.38 175.07 1464.38" fill="none" stroke="#16c8f2" stroke-miterlimit="10"/>
  <polygon id="SAG1-M17" points="173.88 1428.38 175.07 1464.38 254.73 1464.38 256.1 1428.38 173.88 1428.38" fill="none" stroke="#16c8f2" stroke-miterlimit="10"/>
  <polygon id="SAG1-M18" points="257.76 1391.87 256.1 1428.38 173.88 1428.38 173.88 1391.87 257.76 1391.87" fill="none" stroke="#16c8f2" stroke-miterlimit="10"/>
  <polygon id="SAG1-M19" points="259.16 1356.64 257.76 1391.87 173.88 1391.87 173.37 1356.64 259.16 1356.64" fill="none" stroke="#16c8f2" stroke-miterlimit="10"/>
  <polygon id="SAG1-M20" points="173.37 1322.43 173.37 1356.64 259.16 1356.64 260.82 1321.4 173.37 1322.43" fill="none" stroke="#16c8f2" stroke-miterlimit="10"/>
  <polygon id="SAG1-M21" points="173.37 1287.32 173.37 1322.43 260.82 1321.4 262.61 1285.91 173.37 1287.32" fill="none" stroke="#16c8f2" stroke-miterlimit="10"/>
  <polygon id="SAG1-M22" points="173.37 1253.11 264.9 1252.09 262.61 1285.91 173.37 1287.32 173.37 1253.11" fill="none" stroke="#16c8f2" stroke-miterlimit="10"/>
  <polygon id="SAG1-M23" points="172.86 1219.4 267.07 1218.13 264.9 1252.09 173.37 1253.11 172.86 1219.4" fill="none" stroke="#16c8f2" stroke-miterlimit="10"/>
  <polygon id="SAG1-M24" points="171.46 1185.06 172.86 1219.4 267.07 1218.13 267.07 1183.53 171.46 1185.06" fill="none" stroke="#16c8f2" stroke-miterlimit="10"/>
  <polygon id="SAG1-M25" points="171.46 1150.98 267.07 1150.34 267.07 1183.53 171.46 1185.06 171.46 1150.98" fill="none" stroke="#16c8f2" stroke-miterlimit="10"/>
  <polygon id="SAG1-M26" points="171.46 1117.02 266.18 1116.51 267.07 1150.34 171.46 1150.98 171.46 1117.02" fill="none" stroke="#16c8f2" stroke-miterlimit="10"/>
  <polygon id="SAG1-M27" points="170.44 1083.06 265.03 1082.3 266.18 1116.51 171.46 1117.02 170.44 1083.06" fill="none" stroke="#16c8f2" stroke-miterlimit="10"/>
  <polygon id="SAG1-M28" points="169.16 1048.98 262.22 1048.09 265.03 1082.3 170.44 1083.06 169.16 1048.98" fill="none" stroke="#16c8f2" stroke-miterlimit="10"/>
  <polygon id="SAG1-M29" points="167.63 1015.02 257.5 1015.02 262.27 1048.59 169.16 1048.98 167.63 1015.02" fill="none" stroke="#16c8f2" stroke-miterlimit="10"/>
  <polygon id="SAG1-M30" points="166.48 980.3 254.95 979.4 257.59 1015.63 167.63 1015.02 166.48 980.3" fill="none" stroke="#16c8f2" stroke-miterlimit="10"/>
  <polygon id="SAG1-M31" points="165.2 944.94 252.14 944.43 254.95 979.4 166.48 980.3 165.2 944.94" fill="none" stroke="#16c8f2" stroke-miterlimit="10"/>
  <polygon id="SAG1-M32" points="164.44 908.68 248.95 907.91 252.14 944.43 165.2 944.94 164.44 908.68" fill="none" stroke="#16c8f2" stroke-miterlimit="10"/>
  <polygon id="SAG1-M33" points="162.78 871.4 246.78 871.4 248.95 907.91 164.44 908.68 162.78 871.4" fill="none" stroke="#16c8f2" stroke-miterlimit="10"/>
  <polygon id="SAG1-M34" points="162.78 833.11 243.71 833.11 246.78 871.4 162.78 871.4 162.78 833.11" fill="none" stroke="#16c8f2" stroke-miterlimit="10"/>
  <polygon id="SAG1-M35" points="162.01 795.06 239.76 794.94 243.71 833.11 162.78 833.11 162.01 795.06" fill="none" stroke="#16c8f2" stroke-miterlimit="10"/>
  <polygon id="SAG1-M36" points="160.52 756.81 239.33 756.81 239.83 795.62 162.01 795.06 160.52 756.81" fill="none" stroke="#16c8f2" stroke-miterlimit="10"/>
  <polygon id="SAG1-M37" points="159.5 719.02 239.83 718.34 239.33 756.81 160.52 756.81 159.5 719.02" fill="none" stroke="#16c8f2" stroke-miterlimit="10"/>
  <polygon id="SAG1-M38" points="159.5 681.06 240.86 680.21 239.83 718.34 159.5 719.02 159.5 681.06" fill="none" stroke="#16c8f2" stroke-miterlimit="10"/>
  <polygon id="SAG1-M39" points="158.65 643.96 241.88 643.96 240.86 680.21 159.5 681.06 158.65 643.96" fill="none" stroke="#16c8f2" stroke-miterlimit="10"/>
  <polygon id="SAG1-M40" points="157.93 607.06 158.65 643.96 241.88 643.96 241.88 606.04 157.93 607.06" fill="none" stroke="#16c8f2" stroke-miterlimit="10"/>
  <polygon id="SAG1-M41" points="243.07 570.17 241.88 606.04 157.93 607.06 157.16 572.72 243.07 570.17" fill="none" stroke="#16c8f2" stroke-miterlimit="10"/>
  <polygon id="SAG1-M42" points="156.39 538.64 243.59 535.7 243.07 570.17 157.16 572.72 156.39 538.64" fill="none" stroke="#16c8f2" stroke-miterlimit="10"/>
  <polygon id="SAG1-M43" points="154.99 504.43 245.37 501.49 243.59 535.7 156.39 538.64 154.99 504.43" fill="none" stroke="#16c8f2" stroke-miterlimit="10"/>
  <polygon id="SAG1-M44" points="154.22 470.47 246.9 467.91 245.37 501.49 154.99 504.43 154.22 470.47" fill="none" stroke="#16c8f2" stroke-miterlimit="10"/>
  <polygon id="SAG1-M45" points="152.44 436.64 247.93 433.83 246.9 467.91 154.22 470.47 152.44 436.64" fill="none" stroke="#16c8f2" stroke-miterlimit="10"/>
  <polygon id="SAG1-M46" points="151.54 402.43 246.9 399.74 247.93 433.83 152.44 436.64 151.54 402.43" fill="none" stroke="#16c8f2" stroke-miterlimit="10"/>
  <polygon id="SAG1-M47" points="150.39 368.21 244.61 365.79 246.9 399.74 151.54 402.43 150.39 368.21" fill="none" stroke="#16c8f2" stroke-miterlimit="10"/>
  <polygon id="SAG1-M48" points="149.37 334.13 242.95 331.83 244.61 365.79 150.39 368.21 149.37 334.13" fill="none" stroke="#16c8f2" stroke-miterlimit="10"/>
  <path id="SAG1-M49" d="M147.46,265.7h25.15l.77,28.09s26.3-1.15,35.36-1.15c31.15,0,33.83,9.83,33.83,19.79s.38,19.4.38,19.4l-93.57,2.3-1.91-68.43Z" fill="none" stroke="#16c8f2" stroke-miterlimit="10"/>
  <polygon id="SAG1-M50" points="171.71 240.38 172.61 265.7 147.46 265.7 144.14 169.06 206.1 169.06 206.1 241.4 171.71 240.38" fill="none" stroke="#16c8f2" stroke-miterlimit="10"/>
  <polygon id="SAG1-M51" points="244.9 169.06 206.1 169.06 206.1 241.4 244.9 242.09 244.9 169.06" fill="none" stroke="#16c8f2" stroke-miterlimit="10"/>
  <polygon id="SAG1-M52" points="283.71 169.06 244.9 169.06 244.9 241.87 283.71 242.55 283.71 169.06" fill="none" stroke="#16c8f2" stroke-miterlimit="10"/>
  <polygon id="SAG1-M53" points="321.52 169.06 283.71 169.06 283.71 242.55 321.9 244.09 321.52 169.06" fill="none" stroke="#16c8f2" stroke-miterlimit="10"/>
  <polygon id="SAG1-M54" points="360.07 167.96 321.52 169.06 321.9 244.55 360.07 245.74 360.07 167.96" fill="none" stroke="#16c8f2" stroke-miterlimit="10"/>
  <polygon id="SAG1-M55" points="397.07 167.96 360.07 167.96 360.07 245.74 397.07 247.74 397.07 167.96" fill="none" stroke="#16c8f2" stroke-miterlimit="10"/>
  <polygon id="SAG1-M56" points="433.16 167.96 397.07 167.96 397.07 247.74 433.8 248.85 433.16 167.96" fill="none" stroke="#16c8f2" stroke-miterlimit="10"/>
  <polygon id="SAG1-M57" points="469.41 167.96 433.16 167.96 433.8 248.85 469.41 249.62 469.41 167.96" fill="none" stroke="#16c8f2" stroke-miterlimit="10"/>
  <polygon id="SAG1-M58" points="504.99 167.28 469.41 167.96 469.41 249.62 504.99 249.62 504.99 167.28" fill="none" stroke="#16c8f2" stroke-miterlimit="10"/>
  <rect id="SAG1-M59" x="504.99" y="167.28" width="36" height="82.34" fill="none" stroke="#16c8f2" stroke-miterlimit="10"/>
  <polygon id="SAG1-M60" points="577.12 167.28 540.99 167.28 540.99 249.62 577.12 246.34 577.12 167.28" fill="none" stroke="#16c8f2" stroke-miterlimit="10"/>
  <polygon id="SAG1-M61" points="615.07 167.28 577.12 167.28 577.12 246.34 615.07 244.98 615.07 167.28" fill="none" stroke="#16c8f2" stroke-miterlimit="10"/>
  <polygon id="SAG1-M62" points="653.29 166.64 615.07 167.28 615.07 244.98 654.18 244 653.29 166.64" fill="none" stroke="#16c8f2" stroke-miterlimit="10"/>
  <polygon id="SAG1-M63" points="692.73 166.64 653.29 166.64 654.18 244 692.73 242.98 692.73 166.64" fill="none" stroke="#16c8f2" stroke-miterlimit="10"/>
  <polygon id="SAG1-M64" points="732.22 166.64 692.73 166.64 692.73 242.98 732.22 242.09 732.22 166.64" fill="none" stroke="#16c8f2" stroke-miterlimit="10"/>
  <polygon id="SAG1-M65" points="770.65 166 732.22 166.64 732.22 242.09 770.65 241.19 770.65 166" fill="none" stroke="#16c8f2" stroke-miterlimit="10"/>
  <polygon id="SAG1-M66" points="809.29 166 770.65 166 770.65 241.19 809.29 239.87 809.29 166" fill="none" stroke="#16c8f2" stroke-miterlimit="10"/>
  <polygon id="SAG1-M67" points="844.73 165.41 809.29 166 809.29 239.87 843.69 239.01 844.73 165.41" fill="none" stroke="#16c8f2" stroke-miterlimit="10"/>
  <polygon id="SAG1-M68" points="884.01 165.36 844.73 165.41 844.73 277.11 878.73 277.11 884.01 165.36" fill="none" stroke="#16c8f2" stroke-miterlimit="10"/>
  <polygon id="SAG1-M69" points="844.73 314.28 844.73 277.11 878.73 277.11 872.99 396.38 844.73 410.51 814.95 330.85 844.73 314.28" fill="none" stroke="#16c8f2" stroke-miterlimit="10"/>
  <polygon id="SAG1-M70" points="764.39 363.62 814.95 330.85 844.73 410.51 814.95 430.68 764.39 363.62" fill="none" stroke="#16c8f2" stroke-miterlimit="10"/>
  <polygon id="SAG1-M71" points="788.35 453.4 814.95 430.68 764.39 363.62 730.31 391.62 788.35 453.4" fill="none" stroke="#16c8f2" stroke-miterlimit="10"/>
  <polygon id="SAG1-M72" points="764.39 477.91 788.35 453.4 730.31 391.62 699.67 423.62 764.39 477.91" fill="none" stroke="#16c8f2" stroke-miterlimit="10"/>
  <polygon id="SAG1-M73" points="673.8 456.64 699.67 423.62 764.39 477.91 742.73 505.83 673.8 456.64" fill="none" stroke="#16c8f2" stroke-miterlimit="10"/>
  <polygon id="SAG1-M74" points="724.18 534.6 742.73 505.83 673.8 456.64 650.8 494.04 724.18 534.6" fill="none" stroke="#16c8f2" stroke-miterlimit="10"/>
  <polygon id="SAG1-M75" points="709.01 565.79 724.18 534.6 650.8 493.02 631.95 533.49 709.01 565.79" fill="none" stroke="#16c8f2" stroke-miterlimit="10"/>
  <polygon id="SAG1-M76" points="616.71 573.96 631.95 533.49 709.01 565.79 697.78 599.23 616.71 573.96" fill="none" stroke="#16c8f2" stroke-miterlimit="10"/>
  <polygon id="SAG1-M77" points="689.73 632.17 697.78 599.23 616.71 573.96 606.5 616.85 689.73 632.17" fill="none" stroke="#16c8f2" stroke-miterlimit="10"/>
  <polygon id="SAG1-M78" points="684.93 666.3 689.73 632.17 606.5 616.85 601.01 660.85 684.93 666.3" fill="none" stroke="#16c8f2" stroke-miterlimit="10"/>
  <polygon id="SAG1-M79" points="683.9 701.06 684.93 666.3 601.01 660.85 599.39 702.85 683.9 701.06" fill="none" stroke="#16c8f2" stroke-miterlimit="10"/>
  <polygon id="SAG1-M80" points="686.46 735.66 683.9 701.06 599.39 702.85 602.84 745.87 686.46 735.66" fill="none" stroke="#16c8f2" stroke-miterlimit="10"/>
  <polygon id="SAG1-M81" points="610.24 788.51 692.2 769.23 686.46 735.66 602.84 745.87 610.24 788.51" fill="none" stroke="#16c8f2" stroke-miterlimit="10"/>
  <polygon id="SAG1-M82" points="702.03 802.55 692.2 769.23 610.24 788.51 622.88 830.26 702.03 802.55" fill="none" stroke="#16c8f2" stroke-miterlimit="10"/>
  <polygon id="SAG1-M83" points="639.48 870.21 715.56 834.09 702.03 802.55 622.88 830.26 639.48 870.21" fill="none" stroke="#16c8f2" stroke-miterlimit="10"/>
  <polygon id="SAG1-M84" points="660.41 908.51 731.78 864.72 715.56 834.09 639.48 870.21 660.41 908.51" fill="none" stroke="#16c8f2" stroke-miterlimit="10"/>
  <polygon id="SAG1-M85" points="751.82 892.94 731.78 864.72 660.41 908.51 684.67 944.77 751.82 892.94" fill="none" stroke="#16c8f2" stroke-miterlimit="10"/>
  <polygon id="SAG1-M86" points="776.59 923.06 751.82 892.94 684.67 944.77 710.84 974.89 776.59 923.06" fill="none" stroke="#16c8f2" stroke-miterlimit="10"/>
  <polygon id="SAG1-M87" points="802.37 958.34 776.59 923.06 710.84 974.89 733.05 1002.89 802.37 958.34" fill="none" stroke="#16c8f2" stroke-miterlimit="10"/>
  <polygon id="SAG1-M88" points="824.2 996.89 802.37 958.34 733.05 1002.89 749.14 1034.81 824.2 996.89" fill="none" stroke="#16c8f2" stroke-miterlimit="10"/>
  <polygon id="SAG1-M89" points="841.53 1037.23 824.2 996.89 749.14 1034.81 763.56 1066.6 841.53 1037.23" fill="none" stroke="#16c8f2" stroke-miterlimit="10"/>
  <polygon id="SAG1-M90" points="854.71 1079.74 841.53 1037.23 763.56 1066.6 772.63 1099.15 854.71 1079.74" fill="none" stroke="#16c8f2" stroke-miterlimit="10"/>
  <polygon id="SAG1-M91" points="862.88 1123.28 854.71 1079.74 772.63 1099.15 778.37 1133.62 862.88 1123.28" fill="none" stroke="#16c8f2" stroke-miterlimit="10"/>
  <path id="SAG1-M92" d="M865.31,1171.49l-2.43-48.21-84.51,10.34s2.43,17.57,2.94,22.17,1.28,11.36,26.04,12.51c24.77,1.15,57.96,3.19,57.96,3.19Z" fill="none" stroke="#16c8f2" stroke-miterlimit="10"/>
  <path id="SAG1-M93" d="M948.59,1131.62l-84.92,7.29,1.64,32.58s57.49,5.06,67.96,5.19,17.87,2.04,17.11-17.11c-.77-19.15-1.79-27.96-1.79-27.96Z" fill="none" stroke="#16c8f2" stroke-miterlimit="10"/>
  <polygon id="SAG1-M94" points="943.73 1092.72 948.59 1131.62 863.67 1138.91 860.63 1106.68 943.73 1092.72" fill="none" stroke="#16c8f2" stroke-miterlimit="10"/>
  <polygon id="SAG1-M95" points="935.44 1055.06 943.73 1092.72 860.63 1106.68 853.5 1075.84 935.44 1055.06" fill="none" stroke="#16c8f2" stroke-miterlimit="10"/>
  <polygon id="SAG1-M96" points="925.39 1018.13 844.21 1045.88 853.5 1075.84 935.44 1055.06 925.39 1018.13" fill="none" stroke="#16c8f2" stroke-miterlimit="10"/>
  <polygon id="SAG1-M97" points="911.1 982.89 925.39 1018.13 844.21 1045.88 832.53 1016.27 911.1 982.89" fill="none" stroke="#16c8f2" stroke-miterlimit="10"/>
  <polygon id="SAG1-M98" points="894.41 948.68 911.1 982.89 832.53 1016.27 818.92 987.56 894.41 948.68" fill="none" stroke="#16c8f2" stroke-miterlimit="10"/>
  <polygon id="SAG1-M99" points="874.84 915.49 894.41 948.68 818.92 987.56 803.64 960.57 874.84 915.49" fill="none" stroke="#16c8f2" stroke-miterlimit="10"/>
  <polygon id="SAG1-M100" points="853.05 883.66 874.84 915.49 803.64 960.57 784.96 934.52 853.05 883.66" fill="none" stroke="#16c8f2" stroke-miterlimit="10"/>
  <polygon id="SAG1-M101" points="827.52 853.36 853.05 883.66 784.96 934.52 764.2 908 827.52 853.36" fill="none" stroke="#16c8f2" stroke-miterlimit="10"/>
  <polygon id="SAG1-M102" points="808.63 827.06 738.39 874.04 764.2 908 827.52 853.36 808.63 827.06" fill="none" stroke="#16c8f2" stroke-miterlimit="10"/>
  <polygon id="SAG1-M103" points="792.59 800.13 808.63 827.06 738.39 874.04 717.15 837.08 792.59 800.13" fill="none" stroke="#16c8f2" stroke-miterlimit="10"/>
  <polygon id="SAG1-M104" points="780.71 770.38 792.59 800.13 717.15 837.08 700.55 797.53 780.71 770.38" fill="none" stroke="#16c8f2" stroke-miterlimit="10"/>
  <polygon id="SAG1-M105" points="689.96 756.15 770.63 738.98 780.71 770.38 700.55 797.53 689.96 756.15" fill="none" stroke="#16c8f2" stroke-miterlimit="10"/>
  <polygon id="SAG1-M106" points="768.59 708.72 770.63 738.98 689.96 756.15 684.93 713.32 768.59 708.72" fill="none" stroke="#16c8f2" stroke-miterlimit="10"/>
  <polygon id="SAG1-M107" points="768.71 676.17 768.59 708.72 684.93 713.32 684.79 670.81 768.71 676.17" fill="none" stroke="#16c8f2" stroke-miterlimit="10"/>
  <polygon id="SAG1-M108" points="772.41 644.77 690.63 628.5 684.93 671.57 768.71 676.17 772.41 644.77" fill="none" stroke="#16c8f2" stroke-miterlimit="10"/>
  <polygon id="SAG1-M109" points="780.97 614.26 772.41 644.77 690.63 628.5 702.05 586.5 780.97 614.26" fill="none" stroke="#16c8f2" stroke-miterlimit="10"/>
  <polygon id="SAG1-M110" points="793.61 584.89 780.97 614.26 702.05 586.5 718.18 546.93 793.61 584.89" fill="none" stroke="#16c8f2" stroke-miterlimit="10"/>
  <polygon id="SAG1-M111" points="810.07 557.83 739.59 510.7 718.18 546.93 793.61 584.89 810.07 557.83" fill="none" stroke="#16c8f2" stroke-miterlimit="10"/>
  <polygon id="SAG1-M112" points="766.02 476.25 829.1 531.66 810.07 557.83 739.59 510.7 766.02 476.25" fill="none" stroke="#16c8f2" stroke-miterlimit="10"/>
  <polygon id="SAG1-M113" points="852.2 509.57 829.1 531.66 766.02 476.25 797.19 445.86 852.2 509.57" fill="none" stroke="#16c8f2" stroke-miterlimit="10"/>
  <path id="SAG1-M114" d="M869.44,471.53l3.55-75.15-28.26,14.13-47.55,35.35,55.02,63.72s16.34-10.09,34.6-6.26c18.26,3.83,23.23,9.7,23.23,9.7l8.55-20.43-49.15-21.06Z" fill="none" stroke="#16c8f2" stroke-miterlimit="10"/>
  <path id="SAG1-M7115" d="M1029.9,540.21l-111.32-47.62-9.06,20.43s14.17,9.7,17.36,20.81c3.19,11.11,5.23,20.81,5.23,20.81l80.68,33.45s13.53-28.34,17.11-47.87Z" fill="none" stroke="#16c8f2" stroke-miterlimit="10"/>
  <path id="SAG1-M116" d="M988.41,636.85s22.09-38.81,24.38-48.77c-7.47-3.1-80.68-33.45-80.68-33.45,0,0-4.72,27.19-15.19,37.79,12.26,7.28,71.49,44.43,71.49,44.43Z" fill="none" stroke="#16c8f2" stroke-miterlimit="10"/>
  <polygon id="SAG1-M117" points="892.67 626 916.93 592.43 988.41 636.85 962.5 673.62 892.67 626" fill="none" stroke="#16c8f2" stroke-miterlimit="10"/>
  <polygon id="SAG1-M118" points="941.56 703.62 962.5 673.62 892.67 626 870.59 661.11 941.56 703.62" fill="none" stroke="#16c8f2" stroke-miterlimit="10"/>
  <polygon id="SAG1-M119" points="923.82 732.44 941.56 703.62 870.59 661.11 849.95 693.83 923.82 732.44" fill="none" stroke="#16c8f2" stroke-miterlimit="10"/>
  <polygon id="SAG1-M120" points="909.18 763.11 923.82 732.44 849.95 693.83 833.61 729.4 909.18 763.11" fill="none" stroke="#16c8f2" stroke-miterlimit="10"/>
  <path id="SAG1-M121" d="M883.31,837.08s19.4-66.15,25.87-73.98c-7.12-3.17-75.57-33.7-75.57-33.7,0,0-4.77,32.44,9.19,53.84,13.96,21.4,40.51,53.84,40.51,53.84Z" fill="none" stroke="#16c8f2" stroke-miterlimit="10"/>
  <path id="SAG1-M122" d="M968.88,843.19l-79.98-24.61-5.6,18.5s30.77,42.88,35.19,48.15,25.37,15.57,35.93-1.57c10.55-17.15,14.46-40.47,14.46-40.47Z" fill="none" stroke="#16c8f2" stroke-miterlimit="10"/>
  <polygon id="SAG1-M123" points="901.67 779.96 980.63 812.04 968.88 843.19 888.91 818.58 901.67 779.96" fill="none" stroke="#16c8f2" stroke-miterlimit="10"/>
  <polygon id="SAG1-M124" points="918.7 743.17 994.03 782.55 980.63 812.04 901.67 779.96 918.7 743.17" fill="none" stroke="#16c8f2" stroke-miterlimit="10"/>
  <polygon id="SAG1-M125" points="938.16 709.14 1009.44 752.6 994.03 782.55 918.7 743.17 938.16 709.14" fill="none" stroke="#16c8f2" stroke-miterlimit="10"/>
  <polygon id="SAG1-M126" points="1028.33 726.34 1009.44 752.6 938.16 709.14 960.62 676.31 1028.33 726.34" fill="none" stroke="#16c8f2" stroke-miterlimit="10"/>
  <polygon id="SAG1-M127" points="1051.48 694.85 980.49 648.09 960.62 676.31 1028.33 726.34 1051.48 694.85" fill="none" stroke="#16c8f2" stroke-miterlimit="10"/>
  <polygon id="SAG1-M128" points="1073.27 658.43 998.3 618.91 980.49 648.09 1051.48 694.85 1073.27 658.43" fill="none" stroke="#16c8f2" stroke-miterlimit="10"/>
  <polygon id="SAG1-M129" points="1091.48 621.49 1012.8 588.09 998.3 618.91 1073.27 658.43 1091.48 621.49" fill="none" stroke="#16c8f2" stroke-miterlimit="10"/>
  <path id="SAG1-M130" d="M1151.87,575.43s-68.01-21.34-121.97-35.21c-1.96,8.4-8.17,31.66-17.11,47.87,9.34,3.97,78.68,33.4,78.68,33.4,0,0,7.73-18.54,24.26-22.81,7.91-2.04,26.64-.11,26.64-.11l9.5-23.15Z" fill="none" stroke="#16c8f2" stroke-miterlimit="10"/>
  <path id="SAG1-M131" d="M1142.37,598.57s30.21,14.23,30.21,41.13c11.4,4.77,79.66,25.02,79.66,25.02l13.62-44.43-113.99-44.87-9.5,23.15Z" fill="none" stroke="#16c8f2" stroke-miterlimit="10"/>
  <path id="SAG1-M132" d="M1163.56,673.32l78.77,24.26,9.91-32.85-79.66-25.02s-2.77,21.36-9.02,33.62Z" fill="none" stroke="#16c8f2" stroke-miterlimit="10"/>
  <polygon id="SAG1-M133" points="1154.03 705.36 1232.5 730 1242.33 697.57 1163.56 673.32 1154.03 705.36" fill="none" stroke="#16c8f2" stroke-miterlimit="10"/>
  <polygon id="SAG1-M134" points="1142.37 738 1222.71 762 1232.5 730 1154.03 705.36 1142.37 738" fill="none" stroke="#16c8f2" stroke-miterlimit="10"/>
  <polygon id="SAG1-M135" points="1212.67 795.19 1222.71 762 1142.37 738 1130.97 770.51 1212.67 795.19" fill="none" stroke="#16c8f2" stroke-miterlimit="10"/>
  <polygon id="SAG1-M136" points="1202.84 827.57 1212.67 795.19 1130.97 770.51 1120.29 802.89 1202.84 827.57" fill="none" stroke="#16c8f2" stroke-miterlimit="10"/>
  <polygon id="SAG1-M137" points="1108.71 834.13 1193.31 860.34 1202.84 827.57 1120.29 802.89 1108.71 834.13" fill="none" stroke="#16c8f2" stroke-miterlimit="10"/>
  <polygon id="SAG1-M138" points="1183.61 892.68 1193.46 859.81 1108.71 834.13 1097.82 867.15 1183.61 892.68" fill="none" stroke="#16c8f2" stroke-miterlimit="10"/>
  <polygon id="SAG1-M139" points="1173.78 925.36 1183.61 892.68 1097.82 867.15 1086.33 899.32 1173.78 925.36" fill="none" stroke="#16c8f2" stroke-miterlimit="10"/>
  <polygon id="SAG1-M140" points="1163.69 957.53 1173.78 925.36 1086.33 899.32 1077.65 932 1163.69 957.53" fill="none" stroke="#16c8f2" stroke-miterlimit="10"/>
  <polygon id="SAG1-M141" points="1154.12 990.47 1163.69 957.53 1077.65 932 1068.84 965.57 1154.12 990.47" fill="none" stroke="#16c8f2" stroke-miterlimit="10"/>
  <polygon id="SAG1-M142" points="1143.78 1022.64 1154.12 990.47 1068.84 965.57 1060.8 998.26 1143.78 1022.64" fill="none" stroke="#16c8f2" stroke-miterlimit="10"/>
  <polygon id="SAG1-M143" points="1134.2 1055.19 1143.78 1022.64 1060.8 998.26 1052.88 1031.06 1134.2 1055.19" fill="none" stroke="#16c8f2" stroke-miterlimit="10"/>
  <polygon id="SAG1-M144" points="1124.63 1087.87 1134.2 1055.19 1052.88 1031.06 1044.2 1064 1124.63 1087.87" fill="none" stroke="#16c8f2" stroke-miterlimit="10"/>
  <polygon id="SAG1-M145" points="1115.05 1121.19 1124.63 1087.87 1044.2 1064 1035.65 1098.09 1115.05 1121.19" fill="none" stroke="#16c8f2" stroke-miterlimit="10"/>
  <polygon id="SAG1-M146" points="1104.97 1153.62 1115.05 1121.19 1035.65 1098.09 1026.2 1132.55 1104.97 1153.62" fill="none" stroke="#16c8f2" stroke-miterlimit="10"/>
  <polygon id="SAG1-M147" points="1094.37 1187.7 1104.97 1153.62 1026.2 1132.55 1016.76 1167.15 1094.37 1187.7" fill="none" stroke="#16c8f2" stroke-miterlimit="10"/>
  <polygon id="SAG1-M148" points="1083.14 1225.74 1094.37 1187.7 1016.76 1167.15 1006.93 1204.94 1083.14 1225.74" fill="none" stroke="#16c8f2" stroke-miterlimit="10"/>
  <polygon id="SAG1-M149" points="1072.03 1264.55 995.82 1243.23 1006.93 1204.94 1083.14 1225.74 1072.03 1264.55" fill="none" stroke="#16c8f2" stroke-miterlimit="10"/>
  <polygon id="SAG1-M150" points="1059.65 1304.38 1072.03 1264.55 995.82 1243.23 985.1 1282.94 1059.65 1304.38" fill="none" stroke="#16c8f2" stroke-miterlimit="10"/>
  <polygon id="SAG1-M151" points="1048.93 1344.21 1059.65 1304.38 985.1 1282.94 974.37 1324.17 1048.93 1344.21" fill="none" stroke="#16c8f2" stroke-miterlimit="10"/>
  <polygon id="SAG1-M152" points="1037.82 1384.43 1048.93 1344.21 974.37 1324.17 963.14 1364.13 1037.82 1384.43" fill="none" stroke="#16c8f2" stroke-miterlimit="10"/>
  <rect id="SAG1-M153" x="974.02" y="1355.82" width="41.93" height="77.39" transform="translate(-611.39 1989.67) rotate(-74.82)" fill="none" stroke="#16c8f2" stroke-miterlimit="10"/>
  <polygon id="SAG1-M154" points="1015.61 1465.11 1026.84 1424.89 952.16 1404.6 941.44 1444.55 1015.61 1465.11" fill="none" stroke="#16c8f2" stroke-miterlimit="10"/>
  <polygon id="SAG1-M155" points="1004.76 1504.55 1015.61 1465.11 941.44 1444.55 930.97 1484.13 1004.76 1504.55" fill="none" stroke="#16c8f2" stroke-miterlimit="10"/>
  <polygon id="SAG1-M156" points="993.9 1543.62 1004.76 1504.55 930.97 1484.13 920.12 1523.32 993.9 1543.62" fill="none" stroke="#16c8f2" stroke-miterlimit="10"/>
  <polygon id="SAG1-M157" points="984.33 1579.49 993.9 1543.62 920.12 1523.32 909.52 1557.4 984.33 1579.49" fill="none" stroke="#16c8f2" stroke-miterlimit="10"/>
  <polygon id="SAG1-M158" points="899.18 1590.85 974.88 1613.7 984.33 1579.49 909.52 1557.4 899.18 1590.85" fill="none" stroke="#16c8f2" stroke-miterlimit="10"/>
  <polygon id="SAG1-M159" points="965.18 1646.77 974.88 1613.7 899.18 1590.85 888.2 1624.17 965.18 1646.77" fill="none" stroke="#16c8f2" stroke-miterlimit="10"/>
  <polygon id="SAG1-M160" points="878.24 1656.34 956.12 1679.83 965.18 1646.77 888.2 1624.17 878.24 1656.34" fill="none" stroke="#16c8f2" stroke-miterlimit="10"/>
  <polygon id="SAG1-M161" points="946.03 1712.51 956.12 1679.83 878.24 1656.34 869.18 1690.3 946.03 1712.51" fill="none" stroke="#16c8f2" stroke-miterlimit="10"/>
  <polygon id="SAG1-M162" points="859.73 1722.34 937.1 1745.32 946.03 1712.51 869.18 1690.3 859.73 1722.34" fill="none" stroke="#16c8f2" stroke-miterlimit="10"/>
  <polygon id="SAG1-M163" points="927.39 1778.77 850.67 1755.28 859.73 1722.34 937.1 1745.32 927.39 1778.77" fill="none" stroke="#16c8f2" stroke-miterlimit="10"/>
  <polygon id="SAG1-M164" points="917.95 1812.72 927.39 1778.77 850.67 1755.28 843.27 1790.26 917.95 1812.72" fill="none" stroke="#16c8f2" stroke-miterlimit="10"/>
  <polygon id="SAG1-M165" points="834.84 1824.6 908.12 1846.68 917.95 1812.72 843.27 1790.26 834.84 1824.6" fill="none" stroke="#16c8f2" stroke-miterlimit="10"/>
  <polygon id="SAG1-M166" points="826.93 1861.49 898.16 1882.55 908.12 1846.68 834.84 1824.6 826.93 1861.49" fill="none" stroke="#16c8f2" stroke-miterlimit="10"/>
  <polygon id="SAG1-M167" points="888.29 1917.7 898.16 1882.55 826.93 1861.49 819.35 1897.79 888.29 1917.7" fill="none" stroke="#16c8f2" stroke-miterlimit="10"/>
  <polygon id="SAG1-M168" points="810.67 1934.72 877.56 1954.47 888.29 1917.7 819.35 1897.79 810.67 1934.72" fill="none" stroke="#16c8f2" stroke-miterlimit="10"/>
  <polygon id="SAG1-M169" points="802.67 1973.02 866.33 1992.26 877.56 1954.47 810.67 1934.72 802.67 1973.02" fill="none" stroke="#16c8f2" stroke-miterlimit="10"/>
  <path id="SAG1-M170" d="M833.65,2049.11l15.83,4.77,16.85-61.62-63.66-19.23s-5.45,18.04-6.64,23.66c-1.19,5.62-5.45,17.36,21.28,22.64,8.34,1.53,22.81,5.11,22.81,5.11l-6.47,24.68Z" fill="none" stroke="#16c8f2" stroke-miterlimit="10"/>
  <polygon id="SAG1-M171" points="771.35 2139.74 791.95 2066.89 825.48 2075.57 833.65 2049.11 849.48 2053.87 820.88 2153.7 771.35 2139.74" fill="none" stroke="#16c8f2" stroke-miterlimit="10"/>
  <polygon id="SAG1-M172" points="734.59 2128.85 754.84 2055.32 791.95 2066.89 771.35 2139.74 734.59 2128.85" fill="none" stroke="#16c8f2" stroke-miterlimit="10"/>
  <polygon id="SAG1-M173" points="696.8 2118.64 717.39 2045.45 754.84 2055.32 734.59 2128.85 696.8 2118.64" fill="none" stroke="#16c8f2" stroke-miterlimit="10"/>
  <polygon id="SAG1-M174" points="660.54 2108.94 681.14 2035.74 717.39 2045.45 696.8 2118.64 660.54 2108.94" fill="none" stroke="#16c8f2" stroke-miterlimit="10"/>
  <polygon id="SAG1-M175" points="623.27 2099.23 644.03 2025.19 681.14 2035.74 660.54 2108.94 623.27 2099.23" fill="none" stroke="#16c8f2" stroke-miterlimit="10"/>
  <polygon id="SAG1-M176" points="606.93 2015.15 586.67 2089.19 623.27 2099.23 644.03 2025.19 606.93 2015.15" fill="none" stroke="#16c8f2" stroke-miterlimit="10"/>
  <path id="SAG1-M177" d="M549.56,2078.47l37.11,10.72,20.26-74.04s-22.3-5.62-27.74-6.81-11.74-3.57-15.15,13.28c-3.4,16.85-14.47,56.85-14.47,56.85Z" fill="none" stroke="#16c8f2" stroke-miterlimit="10"/>
  <path id="SAG1-M178" d="M766.07,2343.4l54.81-189.7-284.6-79.91s-14.98,56.51-18.72,73.53c-3.74,17.02,11.23,80.34,36.77,93.28,25.53,12.94,211.74,102.81,211.74,102.81Z" fill="none" stroke="#16c8f2" stroke-miterlimit="10"/>
  <path id="SAG3-M1" d="M383.69,1811.96l1.02,49.66s-65.11-33.83-68.43-36-8.68-3.32-8.55-22.85c11.11.89,75.96,9.19,75.96,9.19Z" fill="none" stroke="#16c8f2" stroke-miterlimit="10"/>
  <polygon id="SAG3-M2" points="307.73 1766.21 384.07 1775.79 383.69 1811.96 307.73 1802.77 307.73 1766.21" fill="none" stroke="#16c8f2" stroke-miterlimit="10"/>
  <polygon id="SAG3-M3" points="384.71 1741.57 384.07 1775.79 307.73 1766.21 307.73 1731.87 384.71 1741.57" fill="none" stroke="#16c8f2" stroke-miterlimit="10"/>
  <polygon id="SAG3-M4" points="308.63 1697.66 387.65 1707.74 384.71 1741.57 307.73 1731.87 308.63 1697.66" fill="none" stroke="#16c8f2" stroke-miterlimit="10"/>
  <polygon id="SAG3-M5" points="310.93 1664.72 391.48 1674.3 387.65 1707.74 308.63 1697.66 310.93 1664.72" fill="none" stroke="#16c8f2" stroke-miterlimit="10"/>
  <polygon id="SAG3-M6" points="314.37 1627.96 395.82 1640.47 391.48 1674.3 310.93 1664.72 314.37 1627.96" fill="none" stroke="#16c8f2" stroke-miterlimit="10"/>
  <polygon id="SAG3-M7" points="319.73 1592.34 401.31 1608.81 395.82 1640.47 314.37 1627.96 319.73 1592.34" fill="none" stroke="#16c8f2" stroke-miterlimit="10"/>
  <polygon id="SAG3-M8" points="325.22 1558.64 407.61 1575.32 401.31 1608.81 319.73 1592.34 325.22 1558.64" fill="none" stroke="#16c8f2" stroke-miterlimit="10"/>
  <polygon id="SAG3-M9" points="415.27 1545.53 407.61 1576.34 325.22 1558.64 333.73 1524.09 415.27 1545.53" fill="none" stroke="#16c8f2" stroke-miterlimit="10"/>
  <polygon id="SAG3-M10" points="342.07 1489.53 423.61 1512.85 415.27 1545.53 333.73 1524.09 342.07 1489.53" fill="none" stroke="#16c8f2" stroke-miterlimit="10"/>
  <polygon id="SAG3-M11" points="352.29 1455.32 432.97 1481.19 423.61 1512.85 342.07 1489.53 352.29 1455.32" fill="none" stroke="#16c8f2" stroke-miterlimit="10"/>
  <polygon id="SAG3-M12" points="364.03 1421.62 443.69 1450.89 432.97 1481.19 352.29 1455.32 364.03 1421.62" fill="none" stroke="#16c8f2" stroke-miterlimit="10"/>
  <polygon id="SAG3-M13" points="377.31 1388.6 455.27 1419.06 443.69 1450.89 364.03 1421.62 377.31 1388.6" fill="none" stroke="#16c8f2" stroke-miterlimit="10"/>
  <polygon id="SAG3-M14" points="389.56 1357.79 467.18 1390.81 455.27 1419.06 377.31 1388.6 389.56 1357.79" fill="none" stroke="#16c8f2" stroke-miterlimit="10"/>
  <polygon id="SAG3-M15" points="401.48 1327.32 480.46 1354.38 467.18 1390.81 389.56 1357.79 401.48 1327.32" fill="none" stroke="#16c8f2" stroke-miterlimit="10"/>
  <polygon id="SAG3-M16" points="411.18 1295.66 491.86 1318.3 480.46 1354.38 401.48 1327.32 411.18 1295.66" fill="none" stroke="#16c8f2" stroke-miterlimit="10"/>
  <polygon id="SAG3-M17" points="500.88 1280.85 418.84 1263.15 411.18 1295.66 491.86 1318.3 500.88 1280.85" fill="none" stroke="#16c8f2" stroke-miterlimit="10"/>
  <polygon id="SAG3-M18" points="507.35 1243.4 423.95 1231.32 418.64 1263.99 500.88 1280.85 507.35 1243.4" fill="none" stroke="#16c8f2" stroke-miterlimit="10"/>
  <path id="SAG3-M19" d="M512.2,1199.57l-4.85,43.83-83.4-12.09s2.21-20,3.11-25.87c.89-5.87,6-10.85,15.32-10.47s69.83,4.6,69.83,4.6Z" fill="none" stroke="#16c8f2" stroke-miterlimit="10"/>
  <path id="SAG3-M20" d="M591.99,1247.53l-83.78-11.88,3.99-36.08s64.81,4.72,70.94,5.06,15.49,5.49,13.28,18.91c-2.21,13.43-4.43,23.98-4.43,23.98Z" fill="none" stroke="#16c8f2" stroke-miterlimit="10"/>
  <polygon id="SAG3-M21" points="585.69 1287.36 502.4 1272.06 508.21 1235.65 591.99 1247.53 585.69 1287.36" fill="none" stroke="#16c8f2" stroke-miterlimit="10"/>
  <polygon id="SAG3-M22" points="576.5 1328.72 494.4 1307.77 502.4 1272.06 585.69 1287.36 576.5 1328.72" fill="none" stroke="#16c8f2" stroke-miterlimit="10"/>
  <polygon id="SAG3-M23" points="565.1 1368.72 484.08 1342.91 494.4 1307.77 576.5 1328.72 565.1 1368.72" fill="none" stroke="#16c8f2" stroke-miterlimit="10"/>
  <polygon id="SAG3-M24" points="551.14 1408.21 472.1 1377.32 484.08 1342.91 565.1 1368.72 551.14 1408.21" fill="none" stroke="#16c8f2" stroke-miterlimit="10"/>
  <polygon id="SAG3-M25" points="536.67 1444.3 457.65 1413.4 472.1 1377.32 551.14 1408.21 536.67 1444.3" fill="none" stroke="#16c8f2" stroke-miterlimit="10"/>
  <polygon id="SAG3-M26" points="523.05 1478.51 443.69 1450.89 457.65 1413.4 536.67 1444.3 523.05 1478.51" fill="none" stroke="#16c8f2" stroke-miterlimit="10"/>
  <polygon id="SAG3-M27" points="511.31 1513.74 430.5 1489.53 443.69 1450.89 523.05 1478.51 511.31 1513.74" fill="none" stroke="#16c8f2" stroke-miterlimit="10"/>
  <polygon id="SAG3-M28" points="500.59 1549.49 419.72 1528.08 430.5 1489.53 511.31 1513.74 500.59 1549.49" fill="none" stroke="#16c8f2" stroke-miterlimit="10"/>
  <polygon id="SAG3-M29" points="492.59 1586.09 409.75 1567.72 419.72 1528.08 500.59 1549.49 492.59 1586.09" fill="none" stroke="#16c8f2" stroke-miterlimit="10"/>
  <polygon id="SAG3-M30" points="483.9 1622.51 401.69 1606.79 409.75 1567.72 492.59 1586.09 483.9 1622.51" fill="none" stroke="#16c8f2" stroke-miterlimit="10"/>
  <polygon id="SAG3-M31" points="477.95 1659.62 394.98 1647.01 401.69 1606.79 483.9 1622.51 477.95 1659.62" fill="none" stroke="#16c8f2" stroke-miterlimit="10"/>
  <polygon id="SAG3-M32" points="473.69 1696.38 390.02 1687.03 394.98 1647.01 477.95 1659.62 473.69 1696.38" fill="none" stroke="#16c8f2" stroke-miterlimit="10"/>
  <polygon id="SAG3-M33" points="470.12 1733.49 385.96 1727.23 390.02 1687.03 473.69 1696.38 470.12 1733.49" fill="none" stroke="#16c8f2" stroke-miterlimit="10"/>
  <polygon id="SAG3-M34" points="469.27 1768.72 384.22 1767.87 385.96 1727.23 470.12 1733.49 469.27 1768.72" fill="none" stroke="#16c8f2" stroke-miterlimit="10"/>
  <polygon id="SAG3-M35" points="467.39 1806.17 384.07 1804.81 384.22 1767.87 469.27 1768.72 467.39 1806.17" fill="none" stroke="#16c8f2" stroke-miterlimit="10"/>
  <polygon id="SAG3-M36" points="467.9 1844.64 384.36 1844.64 384.07 1804.81 467.39 1806.17 467.9 1844.64" fill="none" stroke="#16c8f2" stroke-miterlimit="10"/>
  <path id="SAG3-M37" d="M444.41,1892.64s23.15,11.91,23.49-10.89c.34-22.81,0-37.11,0-37.11h-83.54l.35,16.98,59.7,31.02Z" fill="none" stroke="#16c8f2" stroke-miterlimit="10"/>
  <path id="SAG5-M1" d="M513.56,1147.23s-66.21-4.26-73.36-4.6c-7.15-.34-12.26-7.83-12.43-19.06-.17-11.23,0-12.26,0-12.26l82.89-6.81s3.23,30.98,2.89,42.72Z" fill="none" stroke="#16c8f2" stroke-miterlimit="10"/>
  <path id="SAG5-M2" d="M506.41,1066.38s3.74,20.6,4.26,38.13c-8.51.7-82.89,6.81-82.89,6.81l-4.43-32.17,83.06-12.77Z" fill="none" stroke="#16c8f2" stroke-miterlimit="10"/>
  <path id="SAG5-M3" d="M499.78,1029.45s6.81,30.47,6.64,36.94c-4.83.74-83.06,12.77-83.06,12.77l-5.96-32.34,82.38-17.36Z" fill="none" stroke="#16c8f2" stroke-miterlimit="10"/>
  <path id="SAG5-M4" d="M490.59,992.68s8,25.7,9.19,36.77c-9.87,1.87-82.38,17.36-82.38,17.36l-7.83-31.83,81.02-22.3Z" fill="none" stroke="#16c8f2" stroke-miterlimit="10"/>
  <path id="SAG5-M5" d="M478.5,956.6s8.85,21.62,12.09,36.09c-8.34,2.29-81.02,22.3-81.02,22.3l-9.53-31.49,78.47-26.89Z" fill="none" stroke="#16c8f2" stroke-miterlimit="10"/>
  <path id="SAG5-M6" d="M387.78,953.7l77.45-32.85s12.09,25.02,13.28,35.74c-10.14,3.47-78.47,26.89-78.47,26.89l-12.26-29.79Z" fill="none" stroke="#16c8f2" stroke-miterlimit="10"/>
  <path id="SAG5-M7" d="M375.69,922.72l74.04-36.26s14.13,28.09,15.49,34.38c-4.4,1.87-77.45,32.85-77.45,32.85l-12.09-30.98Z" fill="none" stroke="#16c8f2" stroke-miterlimit="10"/>
  <polygon id="SAG5-M8" points="358.67 894.13 433.14 854.98 449.73 886.47 375.69 922.72 358.67 894.13" fill="none" stroke="#16c8f2" stroke-miterlimit="10"/>
  <polygon id="SAG5-M9" points="417.73 825.7 433.14 854.98 358.67 894.13 341.82 861.28 417.73 825.7" fill="none" stroke="#16c8f2" stroke-miterlimit="10"/>
  <polygon id="SAG5-M10" points="405.65 796.94 417.73 825.7 341.82 861.28 327.52 826.55 405.65 796.94" fill="none" stroke="#16c8f2" stroke-miterlimit="10"/>
  <polygon id="SAG5-M11" points="315.44 790.81 394.93 766.13 405.65 796.94 327.52 826.55 315.44 790.81" fill="none" stroke="#16c8f2" stroke-miterlimit="10"/>
  <polygon id="SAG5-M12" points="304.88 754.72 386.59 735.49 394.93 766.13 315.44 790.81 304.88 754.72" fill="none" stroke="#16c8f2" stroke-miterlimit="10"/>
  <polygon id="SAG5-M13" points="297.39 717.62 381.82 704.68 386.59 735.49 304.88 754.72 297.39 717.62" fill="none" stroke="#16c8f2" stroke-miterlimit="10"/>
  <polygon id="SAG5-M14" points="293.65 679.45 377.39 673.06 381.82 704.68 297.39 717.62 293.65 679.45" fill="none" stroke="#16c8f2" stroke-miterlimit="10"/>
  <polygon id="SAG5-M15" points="291.61 642.94 375.61 641.79 377.39 673.06 293.65 679.45 291.61 642.94" fill="none" stroke="#16c8f2" stroke-miterlimit="10"/>
  <polygon id="SAG5-M16" points="292.12 605.15 376.63 609.62 375.61 641.79 291.61 642.94 292.12 605.15" fill="none" stroke="#16c8f2" stroke-miterlimit="10"/>
  <polygon id="SAG5-M17" points="295.44 567.36 379.69 578.34 376.63 609.62 292.12 605.15 295.44 567.36" fill="none" stroke="#16c8f2" stroke-miterlimit="10"/>
  <polygon id="SAG5-M18" points="301.69 529.96 384.54 546.17 379.69 578.34 295.44 567.36 301.69 529.96" fill="none" stroke="#16c8f2" stroke-miterlimit="10"/>
  <polygon id="SAG5-M19" points="310.12 492.94 391.56 515.91 384.54 546.17 301.69 529.96 310.12 492.94" fill="none" stroke="#16c8f2" stroke-miterlimit="10"/>
  <polygon id="SAG5-M20" points="321.99 457.06 400.88 485.4 391.56 515.91 310.12 492.94 321.99 457.06" fill="none" stroke="#16c8f2" stroke-miterlimit="10"/>
  <polygon id="SAG5-M21" points="335.69 421.91 412.63 455.28 400.88 485.4 321.99 457.06 335.69 421.91" fill="none" stroke="#16c8f2" stroke-miterlimit="10"/>
  <polygon id="SAG5-M22" points="352.03 388.38 426.24 426.85 412.63 455.28 335.69 421.91 352.03 388.38" fill="none" stroke="#16c8f2" stroke-miterlimit="10"/>
  <polygon id="SAG5-M23" points="370.76 355.36 441.9 398.77 426.24 426.85 352.03 388.38 370.76 355.36" fill="none" stroke="#16c8f2" stroke-miterlimit="10"/>
  <polygon id="SAG5-M24" points="391.01 322.85 458.93 371.53 441.9 398.77 370.76 355.36 391.01 322.85" fill="none" stroke="#16c8f2" stroke-miterlimit="10"/>
  <path id="SAG5-M25" d="M523.31,299.53s-45.06,44.68-64.38,72c-8.38-6.01-67.91-48.68-67.91-48.68,0,0,11.32-15.06,14.38-18.13,3.06-3.06,7.83-4.43,24.68-4.09,16.85.34,93.23-1.11,93.23-1.11Z" fill="none" stroke="#16c8f2" stroke-miterlimit="10"/>
  <path id="SAG5-M26" d="M569.95,371.53s39.83-31.74,48.68-39.06c8.27-6.84,14.3-17.53,8.17-26.38-6.13-8.85-11.06-9.53-24-9.53s-79.49,2.98-79.49,2.98l-12.2,12.4,58.84,59.6Z" fill="none" stroke="#16c8f2" stroke-miterlimit="10"/>
  <polygon id="SAG5-M27" points="545.95 397.15 569.95 371.53 511.1 311.93 482.12 343.06 545.95 397.15" fill="none" stroke="#16c8f2" stroke-miterlimit="10"/>
  <polygon id="SAG5-M28" points="526.03 426.09 545.95 397.15 482.12 343.06 455.31 377.31 526.03 426.09" fill="none" stroke="#16c8f2" stroke-miterlimit="10"/>
  <polygon id="SAG5-M29" points="506.63 455.28 526.03 426.09 455.31 377.31 433.46 413.92 506.63 455.28" fill="none" stroke="#16c8f2" stroke-miterlimit="10"/>
  <polygon id="SAG5-M30" points="491.14 486.49 506.63 455.28 433.46 413.92 413.85 452.72 491.14 486.49" fill="none" stroke="#16c8f2" stroke-miterlimit="10"/>
  <polygon id="SAG5-M31" points="478.71 519.55 491.14 486.49 413.85 452.72 398.58 492.94 478.71 519.55" fill="none" stroke="#16c8f2" stroke-miterlimit="10"/>
  <polygon id="SAG5-M32" points="469.86 553.23 478.71 519.55 398.58 492.94 387.24 534.55 469.86 553.23" fill="none" stroke="#16c8f2" stroke-miterlimit="10"/>
  <polygon id="SAG5-M33" points="462.88 587.62 379.86 577.24 387.24 534.55 469.86 553.23 462.88 587.62" fill="none" stroke="#16c8f2" stroke-miterlimit="10"/>
  <polygon id="SAG5-M34" points="460.5 622.17 376.63 620.98 379.86 577.24 462.88 587.62 460.5 622.17" fill="none" stroke="#16c8f2" stroke-miterlimit="10"/>
  <polygon id="SAG5-M35" points="461.18 657.74 377.39 662.85 376.63 620.98 460.5 622.17 461.18 657.74" fill="none" stroke="#16c8f2" stroke-miterlimit="10"/>
  <polygon id="SAG5-M36" points="464.76 692.64 381.82 704.68 377.39 662.85 461.18 657.74 464.76 692.64" fill="none" stroke="#16c8f2" stroke-miterlimit="10"/>
  <polygon id="SAG5-M37" points="471.39 726.34 389.8 747.29 381.82 704.68 464.76 692.64 471.39 726.34" fill="none" stroke="#16c8f2" stroke-miterlimit="10"/>
  <polygon id="SAG5-M38" points="482.12 759.87 403.03 789.42 389.8 747.29 471.39 726.34 482.12 759.87" fill="none" stroke="#16c8f2" stroke-miterlimit="10"/>
  <polygon id="SAG5-M39" points="495.39 792.04 419.53 829.11 403.03 789.42 482.12 759.87 495.39 792.04" fill="none" stroke="#16c8f2" stroke-miterlimit="10"/>
  <polygon id="SAG5-M40" points="513.61 826.55 495.39 792.04 419.53 829.11 439.05 866.19 513.61 826.55" fill="none" stroke="#16c8f2" stroke-miterlimit="10"/>
  <polygon id="SAG5-M41" points="532.5 863.53 513.61 826.55 439.05 866.19 456.19 899.65 532.5 863.53" fill="none" stroke="#16c8f2" stroke-miterlimit="10"/>
  <polygon id="SAG5-M42" points="548.5 902.68 471.14 934.04 456.19 899.65 532.5 863.53 548.5 902.68" fill="none" stroke="#16c8f2" stroke-miterlimit="10"/>
  <polygon id="SAG5-M43" points="563.82 941.32 548.5 902.68 471.14 934.04 483.14 968.71 563.82 941.32" fill="none" stroke="#16c8f2" stroke-miterlimit="10"/>
  <polygon id="SAG5-M44" points="575.73 981.49 563.82 941.32 483.14 968.71 493.84 1003.72 575.73 981.49" fill="none" stroke="#16c8f2" stroke-miterlimit="10"/>
  <polygon id="SAG5-M45" points="585.27 1022.34 501.96 1039.61 493.84 1003.72 575.73 981.49 585.27 1022.34" fill="none" stroke="#16c8f2" stroke-miterlimit="10"/>
  <polygon id="SAG5-M46" points="591.73 1063.36 507.89 1075.58 501.96 1039.61 585.27 1022.34 591.73 1063.36" fill="none" stroke="#16c8f2" stroke-miterlimit="10"/>
  <polygon id="SAG5-M47" points="596.33 1105.74 511.34 1111.32 507.89 1075.58 591.73 1063.36 596.33 1105.74" fill="none" stroke="#16c8f2" stroke-miterlimit="10"/>
  <path id="SAG5-M48" d="M597.77,1123.6c-.77-11.78-1.44-17.86-1.44-17.86l-84.99,5.57,2.22,35.91s16.57,1.2,43.79,3.18c27.23,1.97,44.08,7.25,40.42-26.81Z" fill="none" stroke="#16c8f2" stroke-miterlimit="10"/>
  <path id="SAG8-M1" d="M564,1917.15c32.85-1.06,92.06-2.3,92.06-2.3l.11,59.23s-48.44-12.77-60.56-16.3c-29.28-8.17-34.47-3.23-31.61-40.64Z" fill="none" stroke="#16c8f2" stroke-miterlimit="10"/>
  <polygon id="SAG8-M2" points="565.61 1880.47 651.9 1879.06 655.75 1913.91 564 1917.15 565.61 1880.47" fill="none" stroke="#16c8f2" stroke-miterlimit="10"/>
  <polygon id="SAG8-M3" points="565.54 1843.13 565.61 1880.47 651.9 1879.06 649.63 1840.67 565.54 1843.13" fill="none" stroke="#16c8f2" stroke-miterlimit="10"/>
  <polygon id="SAG8-M4" points="565.54 1802.69 565.54 1843.13 649.63 1840.67 648.82 1803.34 565.54 1802.69" fill="none" stroke="#16c8f2" stroke-miterlimit="10"/>
  <polygon id="SAG8-M5" points="566.37 1760.91 565.54 1802.69 648.82 1803.34 650.37 1766.91 566.37 1760.91" fill="none" stroke="#16c8f2" stroke-miterlimit="10"/>
  <polygon id="SAG8-M6" points="570.52 1719.55 566.37 1760.91 650.37 1766.91 654.07 1729.89 570.52 1719.55" fill="none" stroke="#16c8f2" stroke-miterlimit="10"/>
  <polygon id="SAG8-M7" points="576.84 1679.34 570.52 1719.55 654.07 1729.89 658.67 1693.51 576.84 1679.34" fill="none" stroke="#16c8f2" stroke-miterlimit="10"/>
  <polygon id="SAG8-M8" points="586.01 1638.13 576.84 1679.34 659.3 1694.17 666.97 1657.63 586.01 1638.13" fill="none" stroke="#16c8f2" stroke-miterlimit="10"/>
  <polygon id="SAG8-M9" points="596.29 1597.62 586.01 1638.13 666.97 1657.63 676.74 1622.51 596.29 1597.62" fill="none" stroke="#16c8f2" stroke-miterlimit="10"/>
  <polygon id="SAG8-M10" points="609.71 1558.28 596.29 1597.62 676.74 1622.51 688.74 1587.29 609.71 1558.28" fill="none" stroke="#16c8f2" stroke-miterlimit="10"/>
  <polygon id="SAG8-M11" points="624.97 1520.55 609.71 1558.28 688.74 1587.29 702.42 1553.92 624.97 1520.55" fill="none" stroke="#16c8f2" stroke-miterlimit="10"/>
  <polygon id="SAG8-M12" points="641.68 1484.47 624.89 1521.26 702.42 1553.92 717.17 1519.62 641.68 1484.47" fill="none" stroke="#16c8f2" stroke-miterlimit="10"/>
  <polygon id="SAG8-M13" points="659.77 1446.81 641.68 1484.47 717.17 1519.62 733.7 1487.13 659.77 1446.81" fill="none" stroke="#16c8f2" stroke-miterlimit="10"/>
  <polygon id="SAG8-M14" points="680.71 1410.89 659.77 1446.81 733.7 1487.13 752.44 1454.98 680.71 1410.89" fill="none" stroke="#16c8f2" stroke-miterlimit="10"/>
  <polygon id="SAG8-M15" points="705.33 1376 680.71 1410.89 752.44 1454.98 773.43 1425.04 705.33 1376" fill="none" stroke="#16c8f2" stroke-miterlimit="10"/>
  <polygon id="SAG8-M16" points="728.6 1344.94 705.33 1376 773.43 1425.04 797.61 1392.77 728.6 1344.94" fill="none" stroke="#16c8f2" stroke-miterlimit="10"/>
  <polygon id="SAG8-M17" points="746.69 1314.87 728.6 1344.94 797.61 1392.77 819.69 1354.6 746.69 1314.87" fill="none" stroke="#16c8f2" stroke-miterlimit="10"/>
  <polygon id="SAG8-M18" points="761.48 1283.36 746.69 1314.87 819.69 1354.6 838.33 1314.87 761.48 1283.36" fill="none" stroke="#16c8f2" stroke-miterlimit="10"/>
  <polygon id="SAG8-M19" points="770.97 1250.38 761.48 1283.36 838.33 1314.87 851.99 1273.36 770.97 1250.38" fill="none" stroke="#16c8f2" stroke-miterlimit="10"/>
  <polygon id="SAG8-M20" points="778.93 1220.72 770.97 1250.38 851.99 1273.36 862.37 1224.34 778.93 1220.72" fill="none" stroke="#16c8f2" stroke-miterlimit="10"/>
  <path id="SAG8-M21" d="M862.37,1224.34l-7.04,33.25,83.34,18.24,4.99-32.02c1.47-10.02-3.55-14.45-10.62-14.51l-70.67-4.96Z" fill="none" stroke="#16c8f2" stroke-miterlimit="10"/>
  <polygon id="SAG8-M22" points="855.52 1256.91 847.27 1287.69 927.89 1314.09 938.67 1275.83 855.52 1256.91" fill="none" stroke="#16c8f2" stroke-miterlimit="10"/>
  <polygon id="SAG8-M23" points="847.27 1287.69 836.3 1318.98 914.88 1351.06 927.89 1314.09 847.27 1287.69" fill="none" stroke="#16c8f2" stroke-miterlimit="10"/>
  <polygon id="SAG8-M24" points="836.3 1318.98 822.75 1348.07 898.2 1387.32 914.88 1351.06 836.3 1318.98" fill="none" stroke="#16c8f2" stroke-miterlimit="10"/>
  <polygon id="SAG8-M25" points="822.75 1348.07 806.73 1376.99 879.65 1422.38 898.2 1387.32 822.75 1348.07" fill="none" stroke="#16c8f2" stroke-miterlimit="10"/>
  <polygon id="SAG8-M26" points="806.73 1376.99 789.34 1403.8 857.18 1454.98 879.65 1422.38 806.73 1376.99" fill="none" stroke="#16c8f2" stroke-miterlimit="10"/>
  <polygon id="SAG8-M27" points="789.34 1403.8 767.14 1433.96 837.44 1482.13 857.18 1454.98 789.34 1403.8" fill="none" stroke="#16c8f2" stroke-miterlimit="10"/>
  <polygon id="SAG8-M28" points="767.14 1433.96 746.12 1465.81 819.69 1510.04 837.44 1482.13 767.14 1433.96" fill="none" stroke="#16c8f2" stroke-miterlimit="10"/>
  <polygon id="SAG8-M29" points="746.12 1465.81 727.92 1498.69 802.53 1538.43 819.69 1510.04 746.12 1465.81" fill="none" stroke="#16c8f2" stroke-miterlimit="10"/>
  <polygon id="SAG8-M30" points="727.92 1498.69 711.83 1532.87 786.88 1567.4 802.53 1538.43 727.92 1498.69" fill="none" stroke="#16c8f2" stroke-miterlimit="10"/>
  <polygon id="SAG8-M31" points="711.83 1532.87 696.1 1567.4 773.8 1597.62 786.88 1567.4 711.83 1532.87" fill="none" stroke="#16c8f2" stroke-miterlimit="10"/>
  <polygon id="SAG8-M32" points="696.1 1567.4 683.26 1603.36 764.77 1628.7 773.8 1597.62 696.1 1567.4" fill="none" stroke="#16c8f2" stroke-miterlimit="10"/>
  <polygon id="SAG8-M33" points="683.26 1603.36 672.22 1638.75 754.54 1660.94 764.77 1628.7 683.26 1603.36" fill="none" stroke="#16c8f2" stroke-miterlimit="10"/>
  <polygon id="SAG8-M34" points="672.22 1638.75 663.36 1674.84 746.54 1692.94 754.54 1660.94 672.22 1638.75" fill="none" stroke="#16c8f2" stroke-miterlimit="10"/>
  <polygon id="SAG8-M35" points="663.36 1674.84 656.38 1711.62 740.07 1724.77 746.54 1692.94 663.36 1674.84" fill="none" stroke="#16c8f2" stroke-miterlimit="10"/>
  <polygon id="SAG8-M36" points="656.38 1711.62 652.24 1749.96 735.14 1758.13 740.07 1724.77 656.38 1711.62" fill="none" stroke="#16c8f2" stroke-miterlimit="10"/>
  <polygon id="SAG8-M37" points="652.24 1749.96 649.63 1787.23 733.61 1790.98 735.14 1758.13 652.24 1749.96" fill="none" stroke="#16c8f2" stroke-miterlimit="10"/>
  <polygon id="SAG8-M38" points="649.63 1787.23 649.3 1825.53 733.27 1823.83 733.61 1790.98 649.63 1787.23" fill="none" stroke="#16c8f2" stroke-miterlimit="10"/>
  <polygon id="SAG8-M39" points="649.3 1825.53 733.27 1823.83 735.14 1857.36 650.4 1862.83 649.3 1825.53" fill="none" stroke="#16c8f2" stroke-miterlimit="10"/>
  <polygon id="SAG8-M40" points="735.14 1857.36 738.2 1890.64 654.27 1900.46 650.4 1862.83 735.14 1857.36" fill="none" stroke="#16c8f2" stroke-miterlimit="10"/>
  <polygon id="SAG8-M41" points="656.17 1940.68 741.56 1939.32 738.2 1890.64 654.27 1900.46 656.17 1940.68" fill="none" stroke="#16c8f2" stroke-miterlimit="10"/>
  <path id="SAG8-M42" d="M716.69,1990.83c-25.7-7.49-60.52-16.74-60.52-16.74v-33.4l85.39-1.36-.68,42.95s1.51,16.05-24.19,8.56Z" fill="none" stroke="#16c8f2" stroke-miterlimit="10"/>
</svg>